<?xml version="1.0" encoding="utf-8"?>
<!-- Generator: Adobe Illustrator 19.0.0, SVG Export Plug-In . SVG Version: 6.00 Build 0)  -->
<svg version="1.1" id="Layer_1" xmlns:sketch="http://www.bohemiancoding.com/sketch/ns"
	 xmlns="http://www.w3.org/2000/svg" xmlns:xlink="http://www.w3.org/1999/xlink" x="0px" y="0px"
	 viewBox="-1753.9 1044.2 105.8 105.8" height="106px" width="106px">
<style type="text/css">
	.st0{fill:#FFDA6A;}
</style>
<g>
	<circle class="st0" cx="-1701" cy="1097.1" r="52.9"/>
	<ellipse cx="-1688" cy="1076" rx="6.6" ry="13.7"/>
	<path d="M-1706.8,1079.2c0,5.7-3,10.4-6.6,10.4c-3.7,0-6.6-4.6-6.6-10.4c0-7.5-6.2-2.5-6.3-7.5c0-1.8,1.4-2.8,4.3-2.8
		c3.2,0,6.5,0,8.7,0C-1710.1,1068.9-1706.8,1073.5-1706.8,1079.2z"/>
	<path d="M-1725.7,1102.3c5.2,5.7,14.4,9.2,24.7,9.2c10.3,0,19.8-3.6,24.8-9.2c1.1-1.1,0.5-2.6-1.2-3.2c-1.7-0.7-4-0.3-4.9,0.8
		c-3.8,4.2-10.9,6.9-18.7,6.9c-7.7,0-14.7-2.6-18.5-6.9c-1.1-1.1-3.2-1.5-4.9-0.8C-1726.2,1099.8-1726.7,1101.2-1725.7,1102.3z"/>
</g>
</svg>
