<?xml version="1.0" encoding="utf-8"?>
<!-- Generator: Adobe Illustrator 19.0.0, SVG Export Plug-In . SVG Version: 6.00 Build 0)  -->
<svg version="1.1" id="Layer_1" xmlns:sketch="http://www.bohemiancoding.com/sketch/ns"
	 xmlns="http://www.w3.org/2000/svg" xmlns:xlink="http://www.w3.org/1999/xlink" x="0px" y="0px"
	 viewBox="-1171.9 696.1 105.8 105.8" height="106px" width="106px">
<style type="text/css">
	.st0{fill:#FFDA6A;}
	.st1{fill:#1A3A5E;}
	.st2{fill:#DD4B75;}
</style>
<g>
	<circle class="st0" cx="-1119" cy="749" r="52.9"/>
	<rect x="-1143.3" y="734.2" class="st1" width="48.5" height="43.2"/>
	<rect x="-1122" y="734.2" class="st2" width="5.3" height="43.2"/>
	<rect x="-1143.3" y="753.4" class="st2" width="48.5" height="5.3"/>
	<path class="st2" d="M-1118.6,734.3h-10.1c0,0-8.6-2.4-7.6-9.9c1.4-10.3,13.2-7,17.8,0L-1118.6,734.3z M-1122.1,725.3
		c-1.7-3.1-7.9-5.8-10.5-1.3c-1.2,2.1,0.5,5.2,3.7,6.6c1.7,0.7,8,1.3,8,1.3S-1120.9,727.5-1122.1,725.3z"/>
	<path class="st2" d="M-1119.7,724.4c4.6-7,16.4-10.3,17.8,0c1,7.5-7.6,9.9-7.6,9.9h-10.1L-1119.7,724.4z M-1117.3,731.9
		c0,0,6.3-0.6,8.1-1.3c3.2-1.3,4.9-4.5,3.7-6.6c-2.7-4.6-8.9-1.8-10.6,1.3C-1117.4,727.5-1117.3,731.9-1117.3,731.9z"/>
</g>
</svg>
