<?xml version="1.0" encoding="utf-8"?>
<!-- Generator: Adobe Illustrator 19.0.0, SVG Export Plug-In . SVG Version: 6.00 Build 0)  -->
<svg version="1.1" id="Layer_1" xmlns="http://www.w3.org/2000/svg" xmlns:xlink="http://www.w3.org/1999/xlink" x="0px" y="0px"
	 viewBox="0 0 72.9 22.4" style="enable-background:new 0 0 72.9 22.4;" xml:space="preserve">
<style type="text/css">
	.st0{fill:#03A9F4;}
</style>
<g>
	<g id="XMLID_122_">
		<path id="XMLID_137_" class="st0" d="M3.6,7.7h0.7c0.6,0,1-0.2,1.3-0.6l4.4-5.9c0.2-0.3,0.4-0.5,0.7-0.6s0.6-0.2,0.9-0.2h3.1
			L9.2,7.7c-0.4,0.5-0.7,0.8-1.1,1c0.3,0.1,0.5,0.3,0.8,0.4c0.2,0.2,0.4,0.4,0.7,0.7l5.7,8.2H12c-0.2,0-0.4,0-0.5,0
			c-0.1,0-0.3-0.1-0.4-0.1c-0.1-0.1-0.2-0.1-0.3-0.2c-0.1-0.1-0.2-0.2-0.2-0.3L6.1,11c-0.2-0.2-0.3-0.4-0.5-0.5
			c-0.2-0.1-0.5-0.1-0.9-0.1h-1V18H0V0.5h3.6V7.7z"/>
		<path id="XMLID_134_" class="st0" d="M16,7.3c0.7-0.7,1.5-1.2,2.4-1.5c0.9-0.3,1.8-0.5,2.9-0.5c0.7,0,1.4,0.1,2,0.4
			c0.6,0.2,1.1,0.6,1.5,1c0.4,0.4,0.7,0.9,0.9,1.5c0.2,0.6,0.3,1.2,0.3,2V18h-1.5c-0.3,0-0.6,0-0.7-0.1c-0.2-0.1-0.3-0.3-0.4-0.6
			l-0.3-0.8c-0.3,0.3-0.6,0.5-0.9,0.7c-0.3,0.2-0.6,0.4-0.9,0.5c-0.3,0.1-0.7,0.2-1,0.3c-0.4,0.1-0.8,0.1-1.2,0.1
			c-0.5,0-1-0.1-1.5-0.2c-0.5-0.1-0.8-0.4-1.2-0.6c-0.3-0.3-0.6-0.6-0.8-1.1c-0.2-0.4-0.3-0.9-0.3-1.5c0-0.5,0.1-0.9,0.4-1.4
			c0.2-0.5,0.6-0.9,1.2-1.3s1.3-0.7,2.3-0.9c0.9-0.2,2.1-0.4,3.6-0.4v-0.6c0-0.8-0.2-1.4-0.5-1.7c-0.3-0.4-0.8-0.5-1.4-0.5
			c-0.5,0-0.8,0.1-1.1,0.2c-0.3,0.1-0.6,0.2-0.8,0.3c-0.2,0.1-0.4,0.2-0.6,0.4C18.1,8.9,17.9,9,17.6,9c-0.2,0-0.4-0.1-0.6-0.2
			c-0.2-0.1-0.3-0.3-0.4-0.4L16,7.3z M22.8,12.8c-0.8,0-1.5,0.1-2,0.2c-0.5,0.1-1,0.2-1.3,0.4c-0.3,0.2-0.5,0.3-0.7,0.5
			c-0.1,0.2-0.2,0.4-0.2,0.7c0,0.5,0.1,0.8,0.4,1c0.3,0.2,0.6,0.3,1.1,0.3c0.6,0,1-0.1,1.4-0.3c0.4-0.2,0.8-0.5,1.2-0.9V12.8z"/>
		<path id="XMLID_131_" class="st0" d="M28.4,7.3c0.7-0.7,1.5-1.2,2.4-1.5c0.9-0.3,1.8-0.5,2.9-0.5c0.7,0,1.4,0.1,2,0.4
			c0.6,0.2,1.1,0.6,1.5,1c0.4,0.4,0.7,0.9,0.9,1.5c0.2,0.6,0.3,1.2,0.3,2V18h-1.5c-0.3,0-0.6,0-0.7-0.1c-0.2-0.1-0.3-0.3-0.4-0.6
			l-0.3-0.8c-0.3,0.3-0.6,0.5-0.9,0.7c-0.3,0.2-0.6,0.4-0.9,0.5c-0.3,0.1-0.7,0.2-1,0.3c-0.4,0.1-0.8,0.1-1.2,0.1
			c-0.5,0-1-0.1-1.5-0.2c-0.5-0.1-0.8-0.4-1.2-0.6c-0.3-0.3-0.6-0.6-0.8-1.1c-0.2-0.4-0.3-0.9-0.3-1.5c0-0.5,0.1-0.9,0.4-1.4
			c0.2-0.5,0.6-0.9,1.2-1.3c0.6-0.4,1.3-0.7,2.3-0.9c0.9-0.2,2.1-0.4,3.6-0.4v-0.6c0-0.8-0.2-1.4-0.5-1.7c-0.3-0.4-0.8-0.5-1.4-0.5
			c-0.5,0-0.8,0.1-1.1,0.2c-0.3,0.1-0.6,0.2-0.8,0.3c-0.2,0.1-0.4,0.2-0.6,0.4C30.5,8.9,30.2,9,30,9c-0.2,0-0.4-0.1-0.6-0.2
			c-0.2-0.1-0.3-0.3-0.4-0.4L28.4,7.3z M35.2,12.8c-0.8,0-1.5,0.1-2,0.2c-0.5,0.1-1,0.2-1.3,0.4c-0.3,0.2-0.5,0.3-0.7,0.5
			c-0.1,0.2-0.2,0.4-0.2,0.7c0,0.5,0.1,0.8,0.4,1c0.3,0.2,0.6,0.3,1.1,0.3c0.6,0,1-0.1,1.4-0.3c0.4-0.2,0.8-0.5,1.2-0.9V12.8z"/>
		<path id="XMLID_129_" class="st0" d="M44.1,7c0.2-0.2,0.5-0.5,0.8-0.7c0.3-0.2,0.6-0.4,0.9-0.5s0.6-0.3,1-0.3
			c0.3-0.1,0.7-0.1,1.1-0.1c0.7,0,1.3,0.1,1.8,0.3c0.5,0.2,1,0.6,1.3,1c0.4,0.4,0.6,0.9,0.8,1.5c0.2,0.6,0.3,1.2,0.3,1.9V18h-3.3
			v-7.9c0-0.7-0.2-1.2-0.5-1.6c-0.3-0.4-0.8-0.6-1.4-0.6c-0.5,0-0.9,0.1-1.3,0.3c-0.4,0.2-0.8,0.5-1.2,0.8v9H41V5.6h2.1
			c0.4,0,0.7,0.2,0.8,0.6L44.1,7z"/>
		<path id="XMLID_126_" class="st0" d="M58.2,5.6v12.7c0,0.6-0.1,1.1-0.2,1.6c-0.1,0.5-0.4,0.9-0.7,1.3c-0.3,0.4-0.8,0.7-1.3,0.9
			c-0.5,0.2-1.2,0.3-2,0.3c-0.3,0-0.6,0-0.8-0.1c-0.3,0-0.5-0.1-0.8-0.2l0.1-1.8c0-0.2,0.1-0.3,0.2-0.3c0.1-0.1,0.3-0.1,0.6-0.1
			c0.3,0,0.5,0,0.7-0.1c0.2-0.1,0.3-0.1,0.5-0.3c0.1-0.1,0.2-0.3,0.2-0.5c0-0.2,0.1-0.5,0.1-0.8V5.6H58.2z M58.6,2
			c0,0.3-0.1,0.5-0.2,0.8c-0.1,0.2-0.3,0.5-0.5,0.6c-0.2,0.2-0.4,0.3-0.7,0.4C57,4,56.8,4,56.5,4c-0.3,0-0.5-0.1-0.8-0.2
			c-0.2-0.1-0.5-0.2-0.6-0.4c-0.2-0.2-0.3-0.4-0.4-0.6c-0.1-0.2-0.2-0.5-0.2-0.8s0.1-0.5,0.2-0.8C54.7,1,54.9,0.8,55,0.6
			c0.2-0.2,0.4-0.3,0.6-0.4C55.9,0.1,56.2,0,56.5,0c0.3,0,0.6,0.1,0.8,0.2c0.3,0.1,0.5,0.2,0.7,0.4c0.2,0.2,0.3,0.4,0.5,0.6
			C58.5,1.5,58.6,1.7,58.6,2z"/>
		<path id="XMLID_123_" class="st0" d="M66.6,5.4c0.9,0,1.8,0.1,2.5,0.4c0.8,0.3,1.4,0.7,2,1.3c0.5,0.6,1,1.2,1.3,2
			c0.3,0.8,0.4,1.7,0.4,2.7s-0.1,1.9-0.4,2.7c-0.3,0.8-0.7,1.5-1.3,2c-0.5,0.6-1.2,1-2,1.3c-0.8,0.3-1.6,0.4-2.5,0.4
			c-0.9,0-1.8-0.1-2.6-0.4c-0.8-0.3-1.4-0.7-2-1.3c-0.5-0.6-1-1.2-1.3-2c-0.3-0.8-0.5-1.7-0.5-2.7s0.2-1.9,0.5-2.7
			c0.3-0.8,0.7-1.5,1.3-2c0.5-0.6,1.2-1,2-1.3C64.8,5.5,65.7,5.4,66.6,5.4z M66.6,15.7c1,0,1.7-0.3,2.1-1c0.5-0.7,0.7-1.6,0.7-2.9
			c0-1.3-0.2-2.3-0.7-2.9c-0.5-0.7-1.2-1-2.1-1c-1,0-1.7,0.3-2.2,1c-0.5,0.7-0.7,1.6-0.7,2.9c0,1.3,0.2,2.3,0.7,2.9
			C65,15.4,65.7,15.7,66.6,15.7z"/>
	</g>
</g>
</svg>
