<?xml version="1.0" encoding="utf-8"?>
<!-- Generator: Adobe Illustrator 20.1.0, SVG Export Plug-In . SVG Version: 6.00 Build 0)  -->
<svg version="1.1" id="Layer_1" xmlns="http://www.w3.org/2000/svg" xmlns:xlink="http://www.w3.org/1999/xlink" x="0px" y="0px"
	 viewBox="0 0 48 48" style="enable-background:new 0 0 48 48;" xml:space="preserve">
<g>
	<path d="M30.3,42.8c0.3,0.2,0.7,0.3,1.2,0.3c0.6,0,1.4-0.3,1.8-1l10.7-16c0.4-0.7,0.4-1.6,0-2.4l-10.7-16c-0.6-1-2-1.3-3-0.6
		c-1,0.6-1.3,2-0.6,3l9.9,14.9l-9.9,14.9C29,40.8,29.3,42.2,30.3,42.8z"/>
	<path d="M17.8,7.1c-0.3-0.2-0.7-0.3-1.2-0.3c-0.6,0-1.4,0.3-1.8,1l-10.7,16c-0.4,0.7-0.4,1.6,0,2.4l10.7,16c0.6,1,2,1.3,3,0.6
		c1-0.6,1.3-2,0.6-3L8.5,24.9l9.9-14.9C19.1,9.1,18.8,7.7,17.8,7.1z"/>
</g>
</svg>
