<?xml version="1.0" encoding="utf-8"?>
<!-- Generator: Adobe Illustrator 20.1.0, SVG Export Plug-In . SVG Version: 6.00 Build 0)  -->
<svg version="1.1" id="Layer_1" xmlns="http://www.w3.org/2000/svg" xmlns:xlink="http://www.w3.org/1999/xlink" x="0px" y="0px"
	 viewBox="0 0 48 48" style="enable-background:new 0 0 48 48;" xml:space="preserve">
<g>
	<g>
		<path d="M12.1,14.7h22.7c1.8,0,3.2-1.5,3.2-3.2s-1.5-3.2-3.2-3.2H12.1c-1.8,0-3.2,1.5-3.2,3.2S10.3,14.7,12.1,14.7z"/>
		<path d="M12.1,27.2h14.1c1.8,0,3.2-1.5,3.2-3.2s-1.5-3.2-3.2-3.2H12.1c-1.8,0-3.2,1.5-3.2,3.2S10.3,27.2,12.1,27.2z"/>
		<path d="M35.4,33.3H12.1c-1.8,0-3.2,1.5-3.2,3.2s1.5,3.2,3.2,3.2h23.3c1.8,0,3.2-1.5,3.2-3.2S37.1,33.3,35.4,33.3z"/>
	</g>
</g>
</svg>
