<?xml version="1.0" encoding="utf-8"?>
<!-- Generator: Adobe Illustrator 20.1.0, SVG Export Plug-In . SVG Version: 6.00 Build 0)  -->
<svg version="1.1" id="Layer_1" xmlns="http://www.w3.org/2000/svg" xmlns:xlink="http://www.w3.org/1999/xlink" x="0px" y="0px"
	 viewBox="0 0 48 48" style="enable-background:new 0 0 48 48;" xml:space="preserve">
<path d="M42.8,7.7l-1.2-1.2c-1.4-1.4-3.2-2.1-5.1-2.1c-1.9,0-3.7,0.7-5.1,2.1l-4.9,4.9c-1.4,1.4-2.1,3.2-2.1,5.1
	c0,1.5,0.5,3,1.3,4.2l-5.6,5.6c-1.2-0.9-2.7-1.3-4.2-1.3c-1.9,0-3.7,0.7-5.1,2.1L5.9,32c-1.4,1.4-2.1,3.2-2.1,5.1
	c0,1.9,0.7,3.7,2.1,5.1l1.2,1.2c1.4,1.4,3.2,2.1,5.1,2.1c1.9,0,3.7-0.7,5.1-2.1l4.9-4.9c1.4-1.4,2.1-3.2,2.1-5.1
	c0-1.5-0.5-3-1.3-4.2l5.6-5.6c1.2,0.9,2.7,1.3,4.2,1.3c1.9,0,3.7-0.7,5.1-2.1l4.9-4.9c1.4-1.4,2.1-3.2,2.1-5.1
	C44.9,10.9,44.2,9.1,42.8,7.7z M16.8,29.6c-0.8,0.8-0.8,2.1,0,2.9c0.8,0.8,2.1,0.8,2.9,0l0.3-0.3c0.2,0.4,0.2,0.8,0.2,1.2
	c0,0.8-0.3,1.6-0.9,2.2l-4.9,4.9c-1.2,1.2-3.2,1.2-4.4,0l-1.2-1.2c-0.6-0.6-0.9-1.4-0.9-2.2c0-0.8,0.3-1.6,0.9-2.2l4.9-4.9
	c0.6-0.6,1.4-0.9,2.2-0.9c0.4,0,0.8,0.1,1.2,0.2L16.8,29.6z M32.2,19.9c0.4-0.4,0.6-0.9,0.6-1.4c0-0.5-0.2-1.3-0.6-1.7
	c-0.4-0.4-0.9-0.8-1.4-0.8c0,0,0,0,0,0c-0.5,0-1.1,0.4-1.4,0.8l-0.6,0.8c-0.2-0.4-0.2-0.7-0.2-1.1c0-0.8,0.3-1.6,0.9-2.2l4.9-4.9
	c1.2-1.2,3.2-1.2,4.4,0l1.2,1.2c0.6,0.6,0.9,1.4,0.9,2.2c0,0.8-0.3,1.6-0.9,2.2L35,19.9c-0.9,0.9-2.2,1.1-3.4,0.7L32.2,19.9z"/>
</svg>
