<?xml version="1.0" encoding="utf-8"?>
<!-- Generator: Adobe Illustrator 19.0.0, SVG Export Plug-In . SVG Version: 6.00 Build 0)  -->
<svg version="1.1" id="Layer_1" xmlns="http://www.w3.org/2000/svg" xmlns:xlink="http://www.w3.org/1999/xlink" x="0px" y="0px"
	 viewBox="-455 257 48 48" style="enable-background:new -455 257 48 48;" xml:space="preserve">
<style type="text/css">
	.st0{fill:#1F4C78;}
</style>
<path class="st0" d="M-415.8,268.1l-1-1c-1.1-1.1-2.6-1.7-4.1-1.7s-3,0.6-4.1,1.7l-3.9,3.9c-1.1,1.1-1.7,2.6-1.7,4.1
	c0,1.2,0.4,2.4,1,3.4l-4.5,4.5c-1-0.7-2.2-1-3.4-1c-1.5,0-3,0.6-4.1,1.7l-3.9,3.9c-1.1,1.1-1.7,2.6-1.7,4.1c0,1.5,0.6,3,1.7,4.1l1,1
	c1.1,1.1,2.6,1.7,4.1,1.7c1.5,0,3-0.6,4.1-1.7l3.9-3.9c1.1-1.1,1.7-2.6,1.7-4.1c0-1.2-0.4-2.4-1-3.4l4.5-4.5c1,0.7,2.2,1,3.4,1
	c1.5,0,3-0.6,4.1-1.7l3.9-3.9c1.1-1.1,1.7-2.6,1.7-4.1C-414.1,270.6-414.7,269.2-415.8,268.1z M-436.7,285.7c-0.6,0.6-0.6,1.7,0,2.3
	c0.6,0.6,1.7,0.6,2.3,0l0.2-0.2c0.2,0.3,0.2,0.6,0.2,1c0,0.6-0.2,1.3-0.7,1.8l-3.9,3.9c-1,1-2.6,1-3.5,0l-1-1
	c-0.5-0.5-0.7-1.1-0.7-1.8s0.2-1.3,0.7-1.8l3.9-3.9c0.5-0.5,1.1-0.7,1.8-0.7c0.3,0,0.6,0.1,1,0.2L-436.7,285.7z M-424.3,277.9
	c0.3-0.3,0.5-0.7,0.5-1.1s-0.2-1-0.5-1.4s-0.7-0.6-1.1-0.6l0,0c-0.4,0-0.9,0.3-1.1,0.6l-0.5,0.6c-0.2-0.3-0.2-0.6-0.2-0.9
	c0-0.6,0.2-1.3,0.7-1.8l3.9-3.9c1-1,2.6-1,3.5,0l1,1c0.5,0.5,0.7,1.1,0.7,1.8c0,0.6-0.2,1.3-0.7,1.8l-4,3.9
	c-0.7,0.7-1.8,0.9-2.7,0.6L-424.3,277.9z"/>
</svg>
