<?xml version="1.0" encoding="utf-8"?>
<!-- Generator: Adobe Illustrator 20.1.0, SVG Export Plug-In . SVG Version: 6.00 Build 0)  -->
<svg version="1.1" id="Layer_1" xmlns="http://www.w3.org/2000/svg" xmlns:xlink="http://www.w3.org/1999/xlink" x="0px" y="0px"
	 viewBox="0 0 48 48" style="enable-background:new 0 0 48 48;" xml:space="preserve">
<path d="M43.4,40.2L32.4,29c2.1-2.7,3.2-5.8,3.2-9.4c0-4.3-1.5-8-4.6-11c-3-3-6.7-4.5-11-4.5c-4.3,0-8,1.5-11,4.5
	c-3,3-4.5,6.7-4.5,11c0,4.3,1.5,8,4.5,11c3,3,6.7,4.6,11,4.6c3.5,0,6.7-1,9.3-3.1l11.1,11.2c0.4,0.4,0.9,0.7,1.5,0.7c0,0,0,0,0,0
	c0.6,0,1-0.3,1.4-0.7c0.4-0.4,0.6-1,0.6-1.6v0C44,41.1,43.9,40.6,43.4,40.2z M31.3,19.7c0,3.1-1.1,5.7-3.3,8
	c-2.2,2.2-4.8,3.3-7.9,3.3c-3.1,0-5.8-1.1-8-3.3c-2.2-2.2-3.3-4.8-3.3-7.9c0-3.1,1.1-5.5,3.3-7.7c2.2-2.2,4.9-3,8-3c0,0,0,0,0,0
	c3.1,0,5.8,0.8,7.9,3C30.2,14.2,31.3,16.6,31.3,19.7z"/>
</svg>
