<?xml version="1.0" encoding="utf-8"?>
<!-- Generator: Adobe Illustrator 20.1.0, SVG Export Plug-In . SVG Version: 6.00 Build 0)  -->
<svg version="1.1" id="Layer_1" xmlns="http://www.w3.org/2000/svg" xmlns:xlink="http://www.w3.org/1999/xlink" x="0px" y="0px"
	 viewBox="0 0 48 48" style="enable-background:new 0 0 48 48;" xml:space="preserve">
<path d="M26.8,24L42,8.8c0.4-0.4,0.6-0.9,0.6-1.4S42.3,6.4,42,6c-0.8-0.8-2-0.8-2.8,0L24,21.2L8.8,6C8.1,5.3,6.8,5.3,6,6
	C5.7,6.4,5.5,6.9,5.5,7.4s0.2,1,0.6,1.4L21.2,24L6,39.2c-0.4,0.4-0.6,0.9-0.6,1.4c0,0.5,0.2,1,0.6,1.4c0.4,0.4,0.9,0.6,1.4,0.6
	s1-0.2,1.4-0.6L24,26.8L39.2,42c0.4,0.4,0.9,0.6,1.4,0.6s1-0.2,1.4-0.6c0.4-0.4,0.6-0.9,0.6-1.4s-0.2-1-0.6-1.4L26.8,24z"/>
</svg>
