<?xml version="1.0" encoding="utf-8"?>
<!-- Generator: Adobe Illustrator 20.1.0, SVG Export Plug-In . SVG Version: 6.00 Build 0)  -->
<svg version="1.1" id="Layer_1" xmlns="http://www.w3.org/2000/svg" xmlns:xlink="http://www.w3.org/1999/xlink" x="0px" y="0px"
	 viewBox="0 0 60 60" style="enable-background:new 0 0 60 60;" xml:space="preserve">
<style type="text/css">
	.st0{fill:#5B8FFD;}
	.st1{fill:#FFFFFF;}
	.st2{fill:#F77669;}
	.st3{fill:#FFD066;}
	.st4{fill:#3F3F3F;}
	.st5{fill:#F3C160;}
	.st6{fill:#F2625A;}
	.st7{fill:#FFFFFF;stroke:#FFFFFF;stroke-width:0.9605;stroke-miterlimit:10;}
	.st8{fill:#333333;}
	.st9{fill:#6251DA;}
	.st10{fill:#FC7E47;}
	.st11{fill:#F0FC93;}
	.st12{fill:#828BFF;}
	.st13{fill:#7AB7FF;}
	.st14{fill:#B0D8FF;}
</style>
<path class="st3" d="M30.6,5.8c-13.3,0-24,10.7-24,24s10.7,24,24,24c13.3,0,24-10.7,24-24S43.8,5.8,30.6,5.8z"/>
<g>
	<path class="st4" d="M27.6,32.7c0.8,0.9,2.1,1.5,3.3,1.5c1.6,0,2.5-0.7,2.5-1.8c0-1.2-1-1.7-2.7-1.7c-0.5,0-1.2,0-1.4,0v-1.9
		c0.2,0,0.9,0,1.4,0c1.4,0,2.5-0.5,2.5-1.6c0-1.1-1.1-1.7-2.4-1.7c-1.2,0-2.2,0.5-3.1,1.3l-1.1-1.3c0.9-1.1,2.4-1.9,4.4-1.9
		c2.6,0,4.3,1.2,4.3,3.2c0,1.6-1.4,2.5-2.6,2.8c1.2,0.1,2.8,1.1,2.8,2.9c0,2-1.7,3.5-4.5,3.5c-2.1,0-3.7-0.9-4.5-1.9L27.6,32.7z"/>
</g>
</svg>
