<?xml version="1.0" encoding="utf-8"?>
<!-- Generator: Adobe Illustrator 20.1.0, SVG Export Plug-In . SVG Version: 6.00 Build 0)  -->
<svg version="1.1" id="Layer_1" xmlns="http://www.w3.org/2000/svg" xmlns:xlink="http://www.w3.org/1999/xlink" x="0px" y="0px"
	 viewBox="0 0 60 60" style="enable-background:new 0 0 60 60;" xml:space="preserve">
<style type="text/css">
	.st0{fill:#5B8FFD;}
	.st1{fill:#FFFFFF;}
	.st2{fill:#F77669;}
	.st3{fill:#FFD066;}
	.st4{fill:#3F3F3F;}
	.st5{fill:#F3C160;}
	.st6{fill:#F2625A;}
	.st7{fill:#FFFFFF;stroke:#FFFFFF;stroke-width:0.9605;stroke-miterlimit:10;}
	.st8{fill:#333333;}
	.st9{fill:#6251DA;}
	.st10{fill:#FC7E47;}
	.st11{fill:#F0FC93;}
	.st12{fill:#828BFF;}
	.st13{fill:#7AB7FF;}
	.st14{fill:#B0D8FF;}
</style>
<g>
	<path class="st3" d="M29.4,6.4c-13.3,0-24,10.7-24,24s10.7,24,24,24c13.3,0,24-10.7,24-24S42.7,6.4,29.4,6.4z"/>
</g>
<path class="st4" d="M39,41.1c-0.3,0-0.7-0.1-0.9-0.4c-0.1-0.1-3.7-4.2-8.6-4.4c-3-0.1-5.9,1.3-8.7,4.2c-0.5,0.5-1.2,0.5-1.7,0
	c-0.5-0.5-0.5-1.2,0-1.7c3.3-3.4,6.8-5,10.5-4.9c6,0.2,10.2,5,10.3,5.2c0.4,0.5,0.4,1.3-0.1,1.7C39.5,41,39.2,41.1,39,41.1z"/>
<g>
	<circle class="st4" cx="21.4" cy="26.1" r="3.6"/>
	<circle class="st4" cx="37.9" cy="26.1" r="3.6"/>
	<g>
		<path class="st4" d="M23.2,20.9c-0.1,0-0.2,0-0.3,0l-5.4-1.3c-0.5-0.1-0.9-0.7-0.7-1.2c0.1-0.5,0.7-0.9,1.2-0.7l5.4,1.3
			c0.5,0.1,0.9,0.7,0.7,1.2C24,20.6,23.6,20.9,23.2,20.9z"/>
		<path class="st4" d="M23.1,21.2c-0.1,0-0.2,0-0.3,0l-5.4-1.3c-0.7-0.2-1.1-0.8-0.9-1.5c0.2-0.7,0.8-1.1,1.5-0.9l5.4,1.3
			c0.3,0.1,0.6,0.3,0.8,0.6s0.2,0.6,0.1,0.9c-0.1,0.5-0.6,0.9-1.1,1l0,0C23.2,21.2,23.2,21.2,23.1,21.2z M17.7,17.9
			c-0.3,0-0.6,0.2-0.7,0.6c-0.1,0.4,0.2,0.8,0.6,0.9l5.4,1.3c0.1,0,0.2,0,0.3,0l0,0c0.3,0,0.6-0.3,0.6-0.6c0.1-0.4-0.2-0.8-0.6-0.9
			l-5.4-1.3C17.8,17.9,17.8,17.9,17.7,17.9z"/>
	</g>
	<g>
		<line class="st4" x1="41.1" y1="18.6" x2="35.7" y2="19.9"/>
		<g>
			<path class="st4" d="M35.6,20.9c0.1,0,0.2,0,0.3,0l5.4-1.3c0.5-0.1,0.9-0.7,0.7-1.2c-0.1-0.5-0.7-0.9-1.2-0.7L35.5,19
				c-0.5,0.1-0.9,0.7-0.7,1.2C34.8,20.6,35.2,20.9,35.6,20.9z"/>
			<path class="st4" d="M35.7,21.2c0,0-0.1,0-0.1,0l0,0c-0.5-0.1-0.9-0.4-1.1-1c-0.1-0.3,0-0.7,0.1-0.9s0.4-0.5,0.8-0.6l5.4-1.3
				c0.7-0.2,1.3,0.3,1.5,0.9c0.2,0.7-0.3,1.3-0.9,1.5L36,21.2C35.9,21.2,35.8,21.2,35.7,21.2z M35.6,20.7c0.1,0,0.2,0,0.3,0l5.4-1.3
				c0.4-0.1,0.7-0.5,0.6-0.9c-0.1-0.4-0.5-0.6-0.9-0.6l-5.4,1.3c-0.4,0.1-0.7,0.5-0.6,0.9C35,20.4,35.3,20.7,35.6,20.7L35.6,20.7z"
				/>
		</g>
	</g>
</g>
</svg>
