<?xml version="1.0" encoding="utf-8"?>
<!-- Generator: Adobe Illustrator 20.1.0, SVG Export Plug-In . SVG Version: 6.00 Build 0)  -->
<svg version="1.1" id="Layer_1" xmlns="http://www.w3.org/2000/svg" xmlns:xlink="http://www.w3.org/1999/xlink" x="0px" y="0px"
	 viewBox="0 0 60 60" style="enable-background:new 0 0 60 60;" xml:space="preserve">
<style type="text/css">
	.st0{fill:#5B8FFD;}
	.st1{fill:#FFFFFF;}
	.st2{fill:#F77669;}
	.st3{fill:#FFD066;}
	.st4{fill:#3F3F3F;}
	.st5{fill:#F3C160;}
	.st6{fill:#F2625A;}
	.st7{fill:#FFFFFF;stroke:#FFFFFF;stroke-width:0.9605;stroke-miterlimit:10;}
	.st8{fill:#333333;}
	.st9{fill:#6251DA;}
	.st10{fill:#FC7E47;}
	.st11{fill:#F0FC93;}
	.st12{fill:#828BFF;}
	.st13{fill:#7AB7FF;}
	.st14{fill:#B0D8FF;}
</style>
<path class="st11" d="M30.5,6c-13.3,0-24,10.7-24,24s10.7,24,24,24c13.3,0,24-10.7,24-24S43.8,6,30.5,6z"/>
<g>
	<g>
		<path class="st9" d="M38.4,39.6c-0.5-0.3-1-0.6-1.6-0.8c0.2-0.5,0.7-1.6,0.9-3.1c0,0,0-0.1,0.1-0.1c0,0,0-0.1,0-0.1
			c0.2-1.3,0.3-2.7,0.1-4.3c0,0,0-0.1,0-0.1c0-0.1,0-0.1-0.1-0.1c-0.2-1.4-0.7-3-1.7-4.4c0,0,0,0,0,0l0,0c-0.8-1.2-1.9-2.4-3.4-3.4
			c0.4-0.2,0.7-0.6,0.8-1.1l3.6-0.8c0.1,0,0.2-0.1,0.3-0.3l0.1-0.3l0.2,0.3c0.1,0.1,0.2,0.1,0.3,0.1l3.5-0.8
			c0.3-0.1,0.4-0.4,0.1-0.6l0,0c-1.8-1.5-4.4-2-7-1.5c-1.7,0.4-3.2,1.2-4.3,2.3c-0.2-0.1-0.5-0.1-0.7-0.1c-0.7-1.2-1.9-2.2-3.4-2.9
			c-2.4-1.1-5.1-1.1-7.1,0v0c-0.3,0.1-0.3,0.5,0,0.7l3.1,1.4c0.1,0.1,0.3,0,0.4,0l0.2-0.2l0.1,0.3c0,0.1,0.1,0.2,0.2,0.3l4.2,1.8
			c-1.4,0-2.9,0.3-4.2,1.1c-2.4,1.3-4,3.4-4.3,5.6l0,0.1c0,0.3,0.3,0.5,0.5,0.4l3.1-1.6c0.1-0.1,0.2-0.2,0.2-0.3v-0.3l0.2,0.2
			c0.1,0.1,0.3,0.1,0.4,0l4.9-2.6c0,0.8,0.7,1.5,1.5,1.5c0.7,0,1.3-0.5,1.5-1.1c3.2,3.7,3.1,7.6,2.5,10.2c0,0,0,0.1,0,0.1l0,0
			c-0.4,1.5-1,2.6-1.2,3c0,0,0,0,0,0c-2.4,0-4.7,0.5-6.6,1.7c-0.2,0.1-0.2,0.3-0.1,0.5c0.1,0.2,0.3,0.2,0.5,0.1
			c1.7-1,3.8-1.6,5.9-1.6s4.3,0.5,6,1.6c0.1,0,0.1,0.1,0.2,0.1c0.1,0,0.3-0.1,0.3-0.2C38.7,40,38.6,39.7,38.4,39.6z M37.1,30.8
			L34.6,31c-0.1-0.9-0.2-1.8-0.5-2.7l1.6-1.1C36.4,28.3,36.9,29.5,37.1,30.8z M34.7,31.7l2.6-0.2c0.1,0.5,0.1,0.9,0.1,1.4
			c0,0.8-0.1,1.5-0.2,2.2l-2.8-0.5C34.5,33.8,34.7,32.8,34.7,31.7z M35.3,26.6l-1.5,0.9c-0.3-0.7-0.7-1.4-1.1-2.1l0.8-0.8
			C34.2,25.3,34.8,25.9,35.3,26.6z M30.8,23.2c0-0.1-0.1-0.1-0.1-0.1c0.1-0.1,0.2-0.1,0.3-0.3c0.7,0.4,1.4,0.9,2,1.4l-0.7,0.7
			C31.8,24.3,31.4,23.7,30.8,23.2z M32.8,21.7L32.8,21.7L32.8,21.7L32.8,21.7c0,0.5-0.3,0.8-0.7,0.8c-0.3,0-0.6-0.2-0.7-0.5
			c-0.1-0.1-0.1-0.2-0.1-0.3c0-0.4,0.3-0.7,0.7-0.7C32.5,20.9,32.8,21.2,32.8,21.7L32.8,21.7z M30.2,21.2c0.2,0.1,0.3,0.4,0.3,0.6
			c0,0.1,0,0.1-0.1,0.2l0,0c-0.1,0.3-0.4,0.5-0.7,0.5c0,0-0.1,0-0.1,0h0c-0.3,0-0.5-0.2-0.6-0.4l0,0c0-0.1-0.1-0.2-0.1-0.3l0,0
			c0,0,0,0,0-0.1c0-0.3,0.2-0.6,0.5-0.7l0,0c0.1,0,0.2,0,0.2,0C29.9,21.1,30.1,21.1,30.2,21.2L30.2,21.2L30.2,21.2z M34.8,18.8
			c2-0.5,4.1-0.1,5.6,0.8l-2.1,0.5c-0.1,0-0.2,0-0.3-0.1l-0.5-0.6c-0.2-0.2-0.5-0.1-0.6,0.1l-0.2,0.7c0,0.1-0.1,0.2-0.3,0.2l-3,0.7
			c0,0,0-0.1,0-0.1s0-0.1,0-0.1c0-0.1-0.1-0.1-0.1-0.2c0,0,0-0.1,0-0.1c-0.1-0.1-0.1-0.1-0.2-0.2l0,0c-0.1-0.1-0.1-0.1-0.2-0.1
			c0,0-0.1,0-0.1-0.1c-0.1,0-0.1-0.1-0.2-0.1c0,0-0.1,0-0.1,0c-0.1,0-0.1,0-0.2-0.1c0,0-0.1,0-0.1,0c-0.1,0-0.2,0-0.3,0
			s-0.2,0-0.3,0C32.6,19.5,33.7,19.1,34.8,18.8z M22.9,18.3l-0.4,0.3c-0.1,0.1-0.3,0.1-0.4,0l-1.9-0.9c1.7-0.6,3.7-0.5,5.6,0.3
			c1.4,0.6,2.3,1.4,3,2.5l0,0c0,0-0.1,0.1-0.1,0.1c0,0-0.1,0.1-0.1,0.1c0,0-0.1,0.1-0.1,0.1c0,0-0.1,0.1-0.1,0.1
			c0,0-0.1,0.1-0.1,0.1c0,0,0,0.1-0.1,0.1s0,0.1-0.1,0.1s0,0.1-0.1,0.1l-4.4-1.9c-0.1-0.1-0.2-0.2-0.2-0.3l-0.1-0.6
			C23.5,18.2,23.1,18.1,22.9,18.3z M21.8,25.8l0,0.6c0,0.1-0.1,0.3-0.2,0.3l-1.9,1c0.5-1.7,1.9-3.3,3.7-4.3c1.2-0.6,2.5-1,3.7-1
			c0.4,0,0.8,0,1.2,0.1c0,0,0,0,0,0.1c0,0,0.1,0.1,0.1,0.1c0,0,0,0,0.1,0.1c0,0,0.1,0.1,0.1,0.1l0,0c-0.1,0-0.1,0.1-0.1,0.1
			l-5.4,2.8c-0.1,0.1-0.3,0.1-0.4,0l-0.5-0.3C22.1,25.4,21.8,25.5,21.8,25.8z M29.8,24.9c-0.5,0.1-0.9-0.3-0.9-0.7
			c0-0.2,0.1-0.4,0.2-0.5c0.1-0.1,0.3-0.2,0.4-0.2l0,0c0.1,0,0.1,0,0.1,0c0.1,0,0.3,0.1,0.4,0.1c0.1,0.1,0.1,0.1,0.2,0.2
			c0.1,0.1,0.1,0.3,0.1,0.5C30.4,24.5,30.1,24.8,29.8,24.9z M34.2,35.4l2.8,0.5c-0.3,1.3-0.7,2.2-0.9,2.7c-0.9-0.3-1.9-0.5-2.9-0.6
			C33.4,37.4,33.8,36.6,34.2,35.4z"/>
		<path class="st9" d="M38.2,40.5c-0.1,0-0.2,0-0.3-0.1c-1.7-1-3.8-1.5-5.9-1.5c-2.1,0-4.2,0.5-5.9,1.5c-0.3,0.1-0.6,0-0.7-0.2
			c-0.1-0.3,0-0.6,0.2-0.7c1.9-1.1,4.1-1.7,6.5-1.7l0,0c0.2-0.5,0.8-1.5,1.2-2.9c0,0,0-0.1,0-0.1c0.9-3.7,0.2-7.1-2.3-10
			c-0.3,0.6-0.9,1-1.5,1c-0.8,0-1.5-0.6-1.6-1.4l-4.7,2.5c-0.2,0.1-0.4,0.1-0.5,0l-0.1,0v0.1c0,0.2-0.1,0.4-0.3,0.4L19.4,29
			c-0.2,0.1-0.4,0.1-0.5,0c-0.2-0.1-0.2-0.3-0.2-0.5l0-0.1c0.3-2.3,2-4.4,4.4-5.7c1.2-0.6,2.4-1,3.7-1.1L23.1,20
			c-0.2-0.1-0.3-0.2-0.3-0.4l0-0.1l-0.1,0c-0.1,0.1-0.3,0.1-0.5,0.1L19,18.2c-0.2-0.1-0.3-0.2-0.3-0.4c0-0.2,0.1-0.4,0.3-0.4
			c2.1-1.1,4.8-1.1,7.2,0c1.5,0.7,2.7,1.7,3.4,2.9c0.2,0,0.4,0,0.6,0.1c1.1-1.1,2.7-1.9,4.3-2.3c2.6-0.6,5.3,0,7.1,1.5
			c0.1,0.1,0.2,0.3,0.2,0.5c0,0.2-0.2,0.3-0.3,0.3L38,21c-0.2,0-0.3,0-0.4-0.1l-0.1-0.1l0,0.1c0,0.2-0.2,0.3-0.3,0.3L33.6,22
			c-0.1,0.4-0.4,0.8-0.7,1c1.4,1,2.4,2.1,3.3,3.3c0,0,0.1,0.1,0.1,0.1c0.9,1.3,1.5,2.8,1.7,4.4c0,0,0.1,0.1,0.1,0.2v0.1
			c0.2,1.4,0.1,2.8-0.1,4.3l0,0.1l0,0c0,0,0,0,0,0c0,0,0,0.1,0,0.1c-0.2,1-0.5,2-0.9,3c0.5,0.2,1,0.4,1.5,0.7
			c0.2,0.1,0.3,0.5,0.2,0.7C38.6,40.4,38.4,40.5,38.2,40.5z M32.1,38.6c2.2,0,4.3,0.6,6,1.6c0,0,0.1,0,0.1,0c0.1,0,0.2,0,0.2-0.1
			c0.1-0.1,0-0.3-0.1-0.4l0,0c-0.5-0.3-1.1-0.6-1.6-0.8l-0.1,0l0.1-0.1c0.4-1,0.7-2,0.9-3.1l0,0l0,0c0,0,0-0.1,0-0.1v-0.1
			c0.3-1.5,0.3-2.9,0.1-4.3l0-0.1c0,0,0,0,0-0.1l0,0l0,0c-0.3-1.6-0.8-3.1-1.7-4.4l0,0c-0.9-1.3-2-2.4-3.4-3.4L32.5,23l0.2-0.1
			c0.4-0.2,0.7-0.6,0.8-1l0-0.1l3.6-0.8c0.1,0,0.1-0.1,0.2-0.2l0.1-0.6l0.4,0.4c0,0.1,0.1,0.1,0.2,0.1l3.5-0.8
			c0.1,0,0.1-0.1,0.2-0.2c0-0.1,0-0.2-0.1-0.2c-1.7-1.5-4.3-2-6.9-1.4c-1.6,0.4-3.1,1.2-4.2,2.3l-0.1,0.1l-0.1,0
			c-0.2-0.1-0.4-0.1-0.7-0.1l-0.1,0l0-0.1c-0.7-1.2-1.9-2.2-3.4-2.9c-2.4-1.1-5-1.1-7,0c-0.1,0-0.1,0.1-0.1,0.2
			c0,0.1,0.1,0.2,0.1,0.2l3.1,1.4c0.1,0,0.2,0,0.3,0l0.4-0.3l0.1,0.5c0,0.1,0.1,0.2,0.1,0.2l4.8,2.1l-0.6,0c-0.1,0-0.1,0-0.2,0
			c-1.3,0-2.7,0.4-4,1c-2.3,1.3-3.9,3.3-4.3,5.5l0,0.1c0,0.1,0,0.2,0.1,0.2c0.1,0.1,0.2,0.1,0.3,0l3.1-1.6c0.1,0,0.1-0.1,0.1-0.2
			v-0.5l0.4,0.3c0.1,0,0.2,0.1,0.2,0l5.1-2.7v0.2c0,0.8,0.6,1.4,1.4,1.4c0.6,0,1.2-0.4,1.3-1l0.1-0.2l0.1,0.2
			c2.6,3,3.4,6.6,2.5,10.3c0,0,0,0,0,0.1c-0.4,1.5-1,2.5-1.2,3l-0.1,0.1l-0.1,0c-0.1,0-0.2,0-0.2,0c-2.3,0-4.5,0.6-6.3,1.7
			c-0.1,0.1-0.2,0.2-0.1,0.4c0.1,0.1,0.2,0.1,0.4,0.1C27.8,39.2,29.9,38.6,32.1,38.6z M36.1,38.7l-0.1,0c-0.9-0.3-1.9-0.5-2.9-0.6
			l-0.2,0l0.1-0.2c0.2-0.4,0.6-1.3,1-2.5l0-0.1l3,0.5l0,0.1c-0.3,1.2-0.6,2.1-0.9,2.7L36.1,38.7z M33.3,37.9
			c0.9,0.1,1.8,0.3,2.7,0.5c0.2-0.6,0.6-1.4,0.8-2.4l-2.5-0.4C33.9,36.6,33.6,37.4,33.3,37.9z M37.2,35.3l-3-0.5l0-0.1
			c0.2-1,0.3-1.9,0.3-2.9l0-0.1l2.8-0.2l0,0.1c0.1,0.5,0.1,1,0.1,1.4c0,0.7-0.1,1.4-0.2,2.2L37.2,35.3z M34.5,34.6L37,35
			c0.1-0.7,0.2-1.4,0.2-2c0-0.4,0-0.9-0.1-1.3l-2.3,0.2C34.8,32.7,34.7,33.6,34.5,34.6z M34.5,31.1l0-0.1c-0.1-0.9-0.2-1.8-0.5-2.6
			l0-0.1l1.8-1.2l0.1,0.1c0.7,1.1,1.2,2.3,1.4,3.6l0,0.1L34.5,31.1z M34.2,28.4c0.3,0.8,0.4,1.7,0.5,2.5l2.2-0.2
			c-0.2-1.2-0.7-2.2-1.3-3.3L34.2,28.4z M19.5,28l0.1-0.3c0.6-1.8,1.9-3.3,3.8-4.3c1.2-0.6,2.6-1,3.8-1c0.5,0,0.9,0,1.3,0.1l0.1,0
			v0.1c0,0,0,0,0,0c0,0,0.1,0.1,0.1,0.1l0.3,0.3l-0.2,0.1c0,0,0,0-0.1,0.1l0,0l0,0L23.3,26c-0.2,0.1-0.4,0.1-0.5,0l-0.5-0.3
			c-0.1-0.1-0.2-0.1-0.3,0c-0.1,0-0.1,0.1-0.1,0.2l0,0.6c0,0.2-0.1,0.4-0.3,0.4L19.5,28z M27.2,22.6c-1.2,0-2.5,0.3-3.7,1
			c-1.7,0.9-3,2.3-3.6,3.9l1.6-0.8c0.1,0,0.1-0.1,0.1-0.2l0-0.6c0-0.2,0.1-0.4,0.3-0.4c0.2-0.1,0.4-0.1,0.5,0l0.5,0.3
			c0.1,0,0.2,0.1,0.2,0l5.3-2.8c0,0,0,0,0,0l-0.1-0.1c0,0,0-0.1-0.1-0.1l0,0C28,22.7,27.7,22.6,27.2,22.6z M33.8,27.7l-0.1-0.1
			c-0.3-0.7-0.7-1.4-1.1-2l-0.1-0.1l1-1l0.1,0.1c0.7,0.6,1.3,1.2,1.8,1.9l0.1,0.1L33.8,27.7z M32.9,25.5c0.4,0.6,0.7,1.2,1,1.9
			l1.2-0.8c-0.4-0.6-1-1.2-1.6-1.7L32.9,25.5z M29.6,25c-0.2,0-0.4-0.1-0.6-0.2c-0.2-0.2-0.3-0.4-0.3-0.7c0-0.2,0.1-0.4,0.3-0.6
			c0.2-0.2,0.3-0.2,0.5-0.2c0,0,0,0,0,0c0,0,0.1,0,0.1,0c0.2,0,0.3,0.1,0.5,0.1l0,0l0.2,0.2c0.1,0.2,0.2,0.4,0.2,0.5
			c0,0.4-0.3,0.7-0.7,0.8l0,0C29.8,25,29.7,25,29.6,25z M29.7,23.5C29.7,23.5,29.6,23.5,29.7,23.5c-0.1,0-0.1,0-0.1,0
			c-0.1,0-0.2,0.1-0.3,0.2C29.1,23.9,29,24,29,24.2c0,0.2,0.1,0.4,0.2,0.5c0.1,0.1,0.3,0.2,0.5,0.1l0,0c0.3-0.1,0.5-0.3,0.5-0.6
			c0-0.1,0-0.3-0.1-0.4L30,23.6C29.9,23.6,29.8,23.5,29.7,23.5z M32.3,25l-0.1-0.1c-0.4-0.5-0.9-1.1-1.5-1.6l0,0c0,0,0,0-0.1,0
			c0,0,0,0-0.1-0.1L30.5,23l0.1-0.1c0.1-0.1,0.2-0.1,0.2-0.2l0.1-0.1l0.1,0.1c0.8,0.5,1.5,0.9,2.1,1.4l0.1,0.1L32.3,25z M30.9,23.1
			c0.5,0.5,1,1,1.4,1.5l0.5-0.5c-0.5-0.4-1.1-0.8-1.8-1.2C30.9,23,30.9,23,30.9,23.1C30.9,23.1,30.9,23.1,30.9,23.1z M29.7,22.7
			l-0.1,0c-0.3,0-0.6-0.2-0.7-0.5c0-0.1-0.1-0.2-0.1-0.3v-0.1c0-0.4,0.3-0.7,0.6-0.8c0.1,0,0.2,0,0.3,0c0.1,0,0.3,0,0.5,0.1l0,0
			c0.3,0.2,0.4,0.5,0.4,0.7c0,0.1,0,0.2-0.1,0.3C30.4,22.4,30.1,22.7,29.7,22.7z M29.8,21.2c-0.1,0-0.1,0-0.2,0
			c-0.3,0.1-0.5,0.4-0.5,0.6v0.1c0,0.1,0,0.1,0,0.2c0.1,0.2,0.3,0.3,0.5,0.4l0.1,0c0.3,0,0.5-0.2,0.6-0.4c0-0.1,0-0.1,0-0.2
			c0-0.2-0.1-0.4-0.3-0.5C30,21.2,29.9,21.2,29.8,21.2z M32.1,22.6c-0.4,0-0.7-0.2-0.8-0.5c-0.1-0.1-0.1-0.2-0.1-0.4
			c0-0.5,0.4-0.9,0.9-0.9s0.9,0.4,0.9,0.9v0.1C32.9,22.2,32.5,22.6,32.1,22.6z M32.1,21c-0.3,0-0.6,0.3-0.6,0.6c0,0.1,0,0.2,0,0.2
			c0.1,0.3,0.3,0.4,0.6,0.4c0.3,0,0.6-0.3,0.6-0.6v0C32.7,21.3,32.4,21,32.1,21z M28.3,21.4l-4.6-2c-0.2-0.1-0.3-0.2-0.3-0.4
			l-0.1-0.6c0-0.1-0.1-0.2-0.1-0.2c-0.1,0-0.2,0-0.2,0l-0.4,0.3c-0.1,0.1-0.3,0.1-0.5,0.1l-2.2-1l0.3-0.1c1.7-0.7,3.8-0.5,5.7,0.3
			c1.3,0.6,2.4,1.4,3,2.5l0.1,0.1l-0.1,0.1c0,0-0.1,0.1-0.1,0.1c0,0-0.1,0.1-0.1,0.1l-0.1,0.1V21l-0.1,0.1c0,0,0,0.1-0.1,0.1
			c0,0,0,0.1-0.1,0.1c0,0,0,0.1,0,0.1L28.3,21.4z M23.1,18c0.1,0,0.1,0,0.2,0c0.2,0.1,0.3,0.2,0.3,0.4l0.1,0.6
			c0,0.1,0.1,0.2,0.1,0.2l4.3,1.9c0,0,0,0,0,0c0,0,0-0.1,0.1-0.1c0,0,0,0,0,0c0-0.1,0.1-0.1,0.1-0.2l0.2-0.2h0c0,0,0,0,0,0l0,0
			c0,0,0,0,0,0c-0.7-1-1.6-1.8-2.9-2.3c-1.8-0.8-3.7-1-5.3-0.4l1.6,0.8c0.1,0,0.2,0,0.3,0l0.4-0.3C22.9,18.1,23,18,23.1,18z
			 M33.4,21.3v-0.2c0,0,0,0,0-0.1c0,0,0,0,0,0l-0.1-0.2c-0.1-0.1-0.1-0.1-0.2-0.2l0,0c0,0,0,0-0.1-0.1c0,0-0.1-0.1-0.1-0.1
			c0,0,0,0-0.1,0l-0.1-0.1c0,0,0,0-0.1,0l0,0c0,0,0,0-0.1,0c0,0-0.1,0-0.1,0c0,0,0,0-0.1,0c-0.1,0-0.2,0-0.3,0s-0.2,0-0.2,0L31,20.5
			l0.7-0.5c0.9-0.6,1.9-1.1,3-1.3h0c2-0.5,4.1-0.2,5.7,0.8l0.3,0.2l-2.4,0.5c-0.2,0-0.3,0-0.4-0.1l-0.5-0.6
			c-0.1-0.1-0.1-0.1-0.2-0.1c-0.1,0-0.1,0.1-0.1,0.2l-0.2,0.7c0,0.2-0.2,0.3-0.3,0.3L33.4,21.3z M33.5,20.8l0.1,0.2c0,0,0,0,0,0
			l2.9-0.6c0.1,0,0.1-0.1,0.2-0.2l0.2-0.7c0-0.2,0.2-0.3,0.3-0.3c0.2,0,0.3,0,0.5,0.1l0.5,0.6c0.1,0.1,0.1,0.1,0.2,0.1l1.8-0.4
			c-1.5-0.8-3.4-1.1-5.2-0.6l0,0c-0.9,0.2-1.8,0.6-2.6,1.1c0,0,0.1,0,0.1,0c0,0,0.1,0,0.1,0l0,0c0,0,0,0,0.1,0c0,0,0.1,0,0.1,0
			c0,0,0,0,0.1,0l0,0l0.2,0.1c0,0,0.1,0,0.1,0.1c0,0,0.1,0,0.1,0.1c0,0,0.1,0,0.1,0.1l0,0C33.3,20.5,33.4,20.6,33.5,20.8L33.5,20.8
			C33.4,20.7,33.5,20.7,33.5,20.8z"/>
	</g>
</g>
</svg>
