<?xml version="1.0" encoding="utf-8"?>
<!-- Generator: Adobe Illustrator 20.1.0, SVG Export Plug-In . SVG Version: 6.00 Build 0)  -->
<svg version="1.1" id="Layer_1" xmlns="http://www.w3.org/2000/svg" xmlns:xlink="http://www.w3.org/1999/xlink" x="0px" y="0px"
	 viewBox="0 0 60 60" style="enable-background:new 0 0 60 60;" xml:space="preserve">
<style type="text/css">
	.st0{fill:#5B8FFD;}
	.st1{fill:#FFFFFF;}
	.st2{fill:#F77669;}
	.st3{fill:#FFD066;}
	.st4{fill:#3F3F3F;}
	.st5{fill:#F3C160;}
	.st6{fill:#F2625A;}
	.st7{fill:#FFFFFF;stroke:#FFFFFF;stroke-width:0.9605;stroke-miterlimit:10;}
	.st8{fill:#333333;}
	.st9{fill:#6251DA;}
	.st10{fill:#FC7E47;}
	.st11{fill:#F0FC93;}
	.st12{fill:#828BFF;}
	.st13{fill:#7AB7FF;}
	.st14{fill:#B0D8FF;}
</style>
<g>
	<g>
		<path class="st4" d="M30.4,6c-13.3,0-24,10.7-24,24s10.7,24,24,24c13.3,0,24-10.7,24-24S43.6,6,30.4,6z"/>
	</g>
	<g>
		<path class="st1" d="M39.5,28.9c0.3-0.6,0.5-1.7-0.4-2.5c-1.5-1.3-5.2-0.5-5.3-0.5l0,0c-0.3,0-0.5,0.1-0.8,0.2c0,0,0,0-0.1,0l0,0
			c0,0-0.1,0-0.1,0c-0.1,0-0.4-0.4,0.5-3c0.6-1.7,0.6-3.1-0.1-3.9c-0.6-0.9-1.6-0.9-1.9-0.9c-0.2,0-0.4,0.1-0.6,0.3
			c-0.4,0.5-0.3,1.6-0.3,1.9c-0.2,0.6-2,5.3-3.7,6.6l0,0c-0.5,0.5-0.8,1.1-0.9,1.5c-0.3-0.2-0.6-0.4-1-0.4h-2.6
			c-0.8,0-1.5,0.7-1.5,1.5v7c0,0.8,0.7,1.5,1.5,1.5h2.6c0.4,0,0.7-0.1,1-0.4l1.1,0.2c0,0,2.9,0.4,5.8,0.3c1.4,0.1,2.5,0.1,3.4-0.1
			c1.2-0.2,2.1-0.8,2.5-1.5c0.4-0.6,0.3-1.3,0.2-1.6c1.4-1.2,1-2.6,0.8-3.1c0.5-0.5,0.7-1.1,0.6-1.6C40.1,29.7,39.7,29.1,39.5,28.9z
			"/>
		<path class="st1" d="M34.1,39.1c-0.5,0-1,0-1.5-0.1c-2.4,0-4.8-0.2-5.8-0.3l-0.9-0.1c-0.4,0.2-0.8,0.3-1.2,0.3h-2.6
			c-1.2,0-2.2-1-2.2-2.2v-7c0-1.2,1-2.2,2.2-2.2h2.6c0.2,0,0.4,0,0.7,0.1c0.2-0.4,0.5-0.8,0.8-1.1l0.1-0.1c1.3-1,2.8-4.6,3.4-6.1
			c-0.1-0.5-0.1-1.6,0.5-2.3c0.3-0.4,0.7-0.5,1.1-0.5c0.8,0,1.9,0.3,2.5,1.2c0.8,1.1,0.8,2.6,0.2,4.6c-0.3,0.9-0.4,1.5-0.5,1.9
			c0.1,0,0.1,0,0.2,0c1.6-0.3,4.5-0.6,5.9,0.7c1,0.9,1,2,0.7,2.9c0.2,0.4,0.5,0.9,0.5,1.5c0,0.6-0.2,1.2-0.6,1.8
			c0.3,1,0.2,2.2-0.8,3.2c0,0.4,0,1-0.4,1.7c-0.5,1-1.5,1.6-3,1.9C35.6,39,34.9,39.1,34.1,39.1z M32.7,37.6L32.7,37.6
			c1.3,0.1,2.4,0.1,3.2-0.1c1-0.2,1.7-0.6,2-1.1c0.3-0.5,0.2-1,0.2-1.1l-0.1-0.4l0.3-0.3c1-0.9,0.8-1.8,0.6-2.2l-0.2-0.4l0.3-0.3
			c0.3-0.4,0.5-0.7,0.5-1.1c0-0.5-0.4-0.9-0.4-1L38.7,29l0.2-0.4c0.1-0.2,0.4-1-0.2-1.6c-0.7-0.6-2.5-0.7-4.7-0.3l-0.1,0
			c-0.1,0-0.3,0-0.4,0.1c-0.1,0-0.2,0-0.2,0.1c0,0-0.1,0-0.1,0c-0.2,0.1-0.5,0.1-0.7-0.1c-0.6-0.4-0.6-1.5,0.2-3.8
			c0.5-1.5,0.5-2.6,0-3.3C32.2,19,31.4,19,31.3,19c-0.2,0.2-0.2,0.9-0.2,1.3l0,0.2l-0.1,0.2c-0.1,0.2-2,5.3-3.9,6.9
			c-0.4,0.4-0.7,0.9-0.8,1.3l-0.3,0.9l-0.8-0.6c-0.1-0.1-0.3-0.2-0.5-0.2h-2.6c-0.4,0-0.8,0.4-0.8,0.8v7c0,0.4,0.4,0.8,0.8,0.8h2.6
			c0.2,0,0.4-0.1,0.5-0.2l0.3-0.2l1.4,0.2c0,0,0,0,0,0C27.9,37.4,30.3,37.6,32.7,37.6L32.7,37.6z"/>
	</g>
</g>
</svg>
