<?xml version="1.0" encoding="utf-8"?>
<!-- Generator: Adobe Illustrator 20.1.0, SVG Export Plug-In . SVG Version: 6.00 Build 0)  -->
<svg version="1.1" id="Layer_1" xmlns="http://www.w3.org/2000/svg" xmlns:xlink="http://www.w3.org/1999/xlink" x="0px" y="0px"
	 viewBox="0 0 60 60" style="enable-background:new 0 0 60 60;" xml:space="preserve">
<style type="text/css">
	.st0{fill:#5B8FFD;}
	.st1{fill:#FFFFFF;}
	.st2{fill:#F77669;}
	.st3{fill:#FFD066;}
	.st4{fill:#3F3F3F;}
	.st5{fill:#F3C160;}
	.st6{fill:#F2625A;}
	.st7{fill:#FFFFFF;stroke:#FFFFFF;stroke-width:0.9605;stroke-miterlimit:10;}
	.st8{fill:#333333;}
	.st9{fill:#6251DA;}
	.st10{fill:#FC7E47;}
	.st11{fill:#F0FC93;}
	.st12{fill:#828BFF;}
	.st13{fill:#7AB7FF;}
	.st14{fill:#B0D8FF;}
</style>
<g>
	<g>
		<path class="st4" d="M30.3,5.9c-13.3,0-24,10.7-24,24s10.7,24,24,24c13.3,0,24-10.7,24-24S43.5,5.9,30.3,5.9z"/>
	</g>
	<g>
		<path class="st1" d="M39.5,31.9l-4.8,5l0,0l-2.9,3c-0.8,0.8-2.1,0.8-2.9,0l-2.9-3l0,0l-4.9-5c-2.4-2.5-2.4-6.4,0-8.9
			c2.4-2.5,6.3-2.5,8.7,0l0.5,0.5l0.3-0.3c2.5-2.5,6.6-2.6,9-0.1C41.9,25.5,41.9,29.4,39.5,31.9L39.5,31.9z"/>
		<path class="st1" d="M30.3,40.9L30.3,40.9c-0.7,0-1.3-0.3-1.8-0.8l-7.7-7.9c-2.6-2.6-2.6-6.9,0-9.6c1.3-1.3,2.9-2,4.7-2h0
			c1.8,0,3.5,0.7,4.7,2l0.1,0.1c1.3-1.3,3.1-2,5-2c1.8,0,3.5,0.7,4.6,2c2.5,2.6,2.4,6.9-0.1,9.5l-7.7,7.9
			C31.6,40.6,30.9,40.9,30.3,40.9z M25.4,21.6c-1.5,0-2.9,0.6-4,1.7c-2.2,2.3-2.2,6,0,8.2l7.7,7.9c0.3,0.3,0.7,0.5,1.1,0.5h0
			c0.4,0,0.8-0.2,1.1-0.5l7.7-7.9c2.2-2.2,2.2-5.9,0.1-8.1c-1-1.1-2.4-1.7-4-1.7c-1.6,0-3.2,0.6-4.3,1.8l-0.7,0.7l-0.8-0.8
			C28.4,22.2,26.9,21.6,25.4,21.6L25.4,21.6z"/>
	</g>
</g>
</svg>
