<?xml version="1.0" encoding="utf-8"?>
<!-- Generator: Adobe Illustrator 20.1.0, SVG Export Plug-In . SVG Version: 6.00 Build 0)  -->
<svg version="1.1" id="Layer_1" xmlns="http://www.w3.org/2000/svg" xmlns:xlink="http://www.w3.org/1999/xlink" x="0px" y="0px"
	 viewBox="0 0 60 60" style="enable-background:new 0 0 60 60;" xml:space="preserve">
<style type="text/css">
	.st0{fill:#5B8FFD;}
	.st1{fill:#FFFFFF;}
	.st2{fill:#F77669;}
	.st3{fill:#FFD066;}
	.st4{fill:#3F3F3F;}
	.st5{fill:#F3C160;}
	.st6{fill:#F2625A;}
	.st7{fill:#FFFFFF;stroke:#FFFFFF;stroke-width:0.9605;stroke-miterlimit:10;}
	.st8{fill:#333333;}
	.st9{fill:#6251DA;}
	.st10{fill:#FC7E47;}
	.st11{fill:#F0FC93;}
	.st12{fill:#828BFF;}
	.st13{fill:#7AB7FF;}
	.st14{fill:#B0D8FF;}
</style>
<g>
	<polygon class="st3" points="31.6,6.2 37.2,23.2 55.1,23.2 40.6,33.7 46.1,50.7 31.6,40.2 17.1,50.7 22.7,33.7 8.2,23.2 26.1,23.2 
			"/>
	<g>
		<path class="st4" d="M28.6,32.5c0.5,0.6,1.4,1,2.3,1c1.1,0,1.7-0.5,1.7-1.3c0-0.8-0.7-1.2-1.9-1.2c-0.4,0-0.8,0-1,0v-1.3
			c0.2,0,0.6,0,1,0c1,0,1.7-0.3,1.7-1.1c0-0.8-0.8-1.2-1.7-1.2c-0.9,0-1.6,0.3-2.2,0.9l-0.8-0.9c0.6-0.8,1.7-1.3,3.1-1.3
			c1.8,0,3,0.9,3,2.3c0,1.1-1,1.8-1.8,1.9c0.8,0.1,1.9,0.7,1.9,2c0,1.4-1.2,2.4-3.2,2.4c-1.5,0-2.6-0.6-3.2-1.4L28.6,32.5z"/>
	</g>
</g>
</svg>
