<?xml version="1.0" encoding="utf-8"?>
<!-- Generator: Adobe Illustrator 20.1.0, SVG Export Plug-In . SVG Version: 6.00 Build 0)  -->
<svg version="1.1" id="Layer_1" xmlns="http://www.w3.org/2000/svg" xmlns:xlink="http://www.w3.org/1999/xlink" x="0px" y="0px"
	 viewBox="0 0 60 60" style="enable-background:new 0 0 60 60;" xml:space="preserve">
<style type="text/css">
	.st0{fill:#5B8FFD;}
	.st1{fill:#FFFFFF;}
	.st2{fill:#F77669;}
	.st3{fill:#FFD066;}
	.st4{fill:#3F3F3F;}
	.st5{fill:#F3C160;}
	.st6{fill:#F2625A;}
	.st7{fill:#FFFFFF;stroke:#FFFFFF;stroke-width:0.9605;stroke-miterlimit:10;}
	.st8{fill:#333333;}
	.st9{fill:#6251DA;}
	.st10{fill:#FC7E47;}
	.st11{fill:#F0FC93;}
	.st12{fill:#828BFF;}
	.st13{fill:#7AB7FF;}
	.st14{fill:#B0D8FF;}
</style>
<g>
	<g>
		<path class="st3" d="M30.5,6.4c-13.3,0-24,10.7-24,24s10.7,24,24,24c13.3,0,24-10.7,24-24S43.7,6.4,30.5,6.4z"/>
	</g>
	<g>
		<circle class="st4" cx="22.3" cy="25.1" r="3.6"/>
		<circle class="st4" cx="38.7" cy="25.1" r="3.6"/>
	</g>
	<g>
		<path class="st4" d="M39.1,39h-17c-0.6,0-1-0.4-1-1s0.4-1,1-1h17c0.6,0,1,0.4,1,1S39.6,39,39.1,39z"/>
	</g>
	<g>
		<path class="st4" d="M39.1,39h-17c-0.6,0-1-0.4-1-1s0.4-1,1-1h17c0.6,0,1,0.4,1,1S39.6,39,39.1,39z"/>
	</g>
	<g>
		<path class="st4" d="M39.6,39h-18c-0.6,0-1.1-0.4-1.1-1s0.5-1,1.1-1h18c0.6,0,1.1,0.4,1.1,1S40.2,39,39.6,39z"/>
	</g>
</g>
</svg>
