<?xml version="1.0" encoding="utf-8"?>
<!-- Generator: Adobe Illustrator 20.1.0, SVG Export Plug-In . SVG Version: 6.00 Build 0)  -->
<svg version="1.1" id="Layer_1" xmlns="http://www.w3.org/2000/svg" xmlns:xlink="http://www.w3.org/1999/xlink" x="0px" y="0px"
	 viewBox="0 0 60 60" style="enable-background:new 0 0 60 60;" xml:space="preserve">
<style type="text/css">
	.st0{fill:#5B8FFD;}
	.st1{fill:#FFFFFF;}
	.st2{fill:#F77669;}
	.st3{fill:#FFD066;}
	.st4{fill:#3F3F3F;}
	.st5{fill:#F3C160;}
	.st6{fill:#F2625A;}
	.st7{fill:#FFFFFF;stroke:#FFFFFF;stroke-width:0.9605;stroke-miterlimit:10;}
	.st8{fill:#333333;}
	.st9{fill:#6251DA;}
	.st10{fill:#FC7E47;}
	.st11{fill:#F0FC93;}
	.st12{fill:#828BFF;}
	.st13{fill:#7AB7FF;}
	.st14{fill:#B0D8FF;}
</style>
<g>
	<g>
		<circle class="st3" cx="31" cy="29.6" r="24"/>
	</g>
	<path class="st4" d="M16.4,25.3c-0.2,0-0.3,0-0.5-0.1c-0.6-0.3-0.8-0.9-0.6-1.5c0.3-0.6,1.3-2.6,3.7-3.3c1.7-0.5,3.1-0.1,3.8,0.2
		c0.6,0.2,0.9,0.9,0.6,1.5c-0.2,0.6-0.9,0.9-1.5,0.6c-0.4-0.2-1.3-0.4-2.3-0.1c-1.5,0.4-2.1,1.8-2.3,2
		C17.2,25.1,16.8,25.3,16.4,25.3z"/>
	<path class="st4" d="M46,25.3c-0.4,0-0.8-0.3-1-0.7c-0.1-0.3-0.8-1.6-2.3-2c-1-0.3-1.9,0-2.3,0.1c-0.6,0.2-1.2-0.1-1.5-0.6
		c-0.2-0.6,0.1-1.2,0.6-1.5c0.7-0.3,2.1-0.7,3.8-0.2c2.4,0.7,3.4,2.7,3.7,3.3c0.3,0.6,0,1.2-0.6,1.5C46.3,25.3,46.2,25.3,46,25.3z"
		/>
	<ellipse class="st4" cx="20.7" cy="28" rx="2.7" ry="3.1"/>
	<ellipse class="st4" cx="41.7" cy="28" rx="2.7" ry="3.1"/>
	<path class="st4" d="M24.3,36.1c0.3,0,0.7,0.2,0.8,0.5c1.1,2.3,3.4,3.6,6.2,3.5c2.3-0.1,4.5-1.4,5.6-3.6c0.2-0.4,0.8-0.6,1.2-0.4
		c0.4,0.2,0.6,0.8,0.4,1.2c-1.4,2.7-4.2,4.4-7.2,4.5c-3.5,0.1-6.5-1.6-7.9-4.6c-0.2-0.5,0-1,0.4-1.2C24,36.1,24.1,36.1,24.3,36.1z"
		/>
</g>
</svg>
