<?xml version="1.0" encoding="utf-8"?>
<!-- Generator: Adobe Illustrator 20.1.0, SVG Export Plug-In . SVG Version: 6.00 Build 0)  -->
<svg version="1.1" id="Layer_1" xmlns="http://www.w3.org/2000/svg" xmlns:xlink="http://www.w3.org/1999/xlink" x="0px" y="0px"
	 viewBox="0 0 60 60" style="enable-background:new 0 0 60 60;" xml:space="preserve">
<style type="text/css">
	.st0{fill:#5B8FFD;}
	.st1{fill:#FFFFFF;}
	.st2{fill:#F77669;}
	.st3{fill:#FFD066;}
	.st4{fill:#3F3F3F;}
	.st5{fill:#F3C160;}
	.st6{fill:#F2625A;}
	.st7{fill:#FFFFFF;stroke:#FFFFFF;stroke-width:0.9605;stroke-miterlimit:10;}
	.st8{fill:#333333;}
	.st9{fill:#6251DA;}
	.st10{fill:#FC7E47;}
	.st11{fill:#F0FC93;}
	.st12{fill:#828BFF;}
	.st13{fill:#7AB7FF;}
	.st14{fill:#B0D8FF;}
</style>
<g>
	<g>
		<path class="st4" d="M30,6.1c-13.3,0-24,10.7-24,24s10.7,24,24,24c13.3,0,24-10.7,24-24S43.3,6.1,30,6.1z"/>
	</g>
	<g>
		<circle class="st1" cx="21.8" cy="24.7" r="3.6"/>
		<circle class="st1" cx="38.2" cy="24.7" r="3.6"/>
		<path class="st1" d="M39.6,40.7c-0.3,0-0.7-0.1-0.9-0.4l0,0c0,0-3.7-4.2-8.6-4.4c-3-0.1-5.9,1.3-8.7,4.2c-0.5,0.5-1.2,0.5-1.7,0
			c-0.5-0.5-0.5-1.2,0-1.7c3.3-3.4,6.8-5,10.5-4.9c6,0.2,10.2,5,10.3,5.2c0.4,0.5,0.4,1.3-0.1,1.7C40.2,40.6,39.9,40.7,39.6,40.7z"
			/>
	</g>
</g>
</svg>
