<?xml version="1.0" encoding="utf-8"?>
<!-- Generator: Adobe Illustrator 20.1.0, SVG Export Plug-In . SVG Version: 6.00 Build 0)  -->
<svg version="1.1" id="Layer_1" xmlns="http://www.w3.org/2000/svg" xmlns:xlink="http://www.w3.org/1999/xlink" x="0px" y="0px"
	 viewBox="0 0 60 60" style="enable-background:new 0 0 60 60;" xml:space="preserve">
<style type="text/css">
	.st0{fill:#5B8FFD;}
	.st1{fill:#FFFFFF;}
	.st2{fill:#F77669;}
	.st3{fill:#FFD066;}
	.st4{fill:#3F3F3F;}
	.st5{fill:#F3C160;}
	.st6{fill:#F2625A;}
	.st7{fill:#FFFFFF;stroke:#FFFFFF;stroke-width:0.9605;stroke-miterlimit:10;}
	.st8{fill:#333333;}
	.st9{fill:#6251DA;}
	.st10{fill:#FC7E47;}
	.st11{fill:#F0FC93;}
	.st12{fill:#828BFF;}
	.st13{fill:#7AB7FF;}
	.st14{fill:#B0D8FF;}
</style>
<g>
	<path class="st3" d="M30.4,6c-13.3,0-24,10.7-24,24s10.7,24,24,24c13.3,0,24-10.7,24-24S43.6,6,30.4,6z"/>
</g>
<g>
	<path class="st4" d="M39.5,28.9c0.3-0.6,0.5-1.7-0.4-2.5c-1.5-1.3-5.2-0.5-5.3-0.5l0,0c-0.3,0-0.5,0.1-0.8,0.2c0,0,0,0-0.1,0l0,0
		c0,0-0.1,0-0.1,0c-0.1,0-0.4-0.4,0.5-3c0.6-1.7,0.6-3.1-0.1-3.9c-0.6-0.9-1.6-0.9-1.9-0.9c-0.2,0-0.4,0.1-0.6,0.3
		c-0.4,0.5-0.3,1.6-0.3,1.9c-0.2,0.6-2,5.3-3.7,6.6l0,0c-0.5,0.5-0.8,1.1-0.9,1.5c-0.3-0.2-0.6-0.4-1-0.4h-2.6
		c-0.8,0-1.5,0.7-1.5,1.5v7c0,0.8,0.7,1.5,1.5,1.5h2.6c0.4,0,0.7-0.1,1-0.4l1.1,0.2c0,0,2.9,0.4,5.8,0.3c1.4,0.1,2.5,0.1,3.4-0.1
		c1.2-0.2,2.1-0.8,2.5-1.5c0.4-0.6,0.3-1.3,0.2-1.6c1.4-1.2,1-2.6,0.8-3.1c0.5-0.5,0.7-1.1,0.6-1.6C40.1,29.7,39.7,29.2,39.5,28.9z"
		/>
	<path class="st4" d="M34.1,38.9c-0.5,0-1,0-1.5-0.1c-2.4,0-4.8-0.2-5.7-0.3l-0.1,0l-0.9-0.1c-0.3,0.2-0.7,0.4-1.1,0.4h-2.6
		c-1.1,0-2-0.9-2-2v-7c0-1.1,0.9-2,2-2h2.6c0.3,0,0.5,0.1,0.8,0.2c0.2-0.5,0.5-0.9,0.8-1.2l0.1-0.1c1.3-1,3-4.8,3.5-6.2
		c0-0.4-0.1-1.5,0.4-2.1c0.3-0.3,0.6-0.4,1-0.4c0.3,0,1.6,0.1,2.3,1.1c0.7,1,0.8,2.5,0.1,4.4c-0.4,1.2-0.5,1.9-0.5,2.2
		c0.2,0,0.4-0.1,0.5-0.1c1.3-0.2,4.3-0.7,5.7,0.6c0.9,0.8,0.9,2,0.6,2.8c0.2,0.3,0.5,0.9,0.5,1.5c0,0.6-0.2,1.2-0.6,1.8
		c0.3,0.9,0.2,2.2-0.8,3.1c0,0.4,0,1-0.3,1.7c-0.5,0.9-1.4,1.5-2.8,1.8C35.6,38.8,34.9,38.9,34.1,38.9z M32.6,37.9
		c1.4,0.1,2.5,0.1,3.3-0.1c1.1-0.2,1.8-0.6,2.2-1.3c0.3-0.6,0.2-1.2,0.2-1.3l-0.1-0.3l0.2-0.2c1.2-1,0.8-2.1,0.7-2.5l-0.1-0.3
		l0.2-0.2c0.4-0.4,0.5-0.9,0.5-1.3c0-0.6-0.4-1-0.5-1.2L39,29l0.1-0.3c0.1-0.2,0.5-1.2-0.3-1.9c-0.9-0.8-3.1-0.7-4.9-0.4l-0.1,0
		c-0.2,0-0.3,0.1-0.5,0.1c-0.1,0-0.2,0-0.3,0.1c0,0-0.1,0-0.1,0c-0.2,0.1-0.3,0-0.5-0.1c-0.3-0.2-0.6-0.8,0.3-3.5
		c0.5-1.6,0.5-2.8,0-3.5c-0.5-0.7-1.4-0.7-1.6-0.7c-0.1,0-0.2,0-0.2,0.1c-0.2,0.3-0.2,1.1-0.2,1.5l0,0.1l0,0.1
		c0,0.1-1.9,5.3-3.8,6.8c-0.5,0.5-0.7,1-0.8,1.4L26,29.4L25.5,29c-0.1-0.1-0.4-0.3-0.7-0.3h-2.6c-0.5,0-1,0.5-1,1v7c0,0.5,0.5,1,1,1
		h2.6c0.3,0,0.5-0.1,0.7-0.3l0.2-0.2l1.3,0.2c0,0,0,0,0.1,0C27.9,37.6,30.3,37.9,32.6,37.9z"/>
</g>
</svg>
