<?xml version="1.0" encoding="utf-8"?>
<!-- Generator: Adobe Illustrator 20.1.0, SVG Export Plug-In . SVG Version: 6.00 Build 0)  -->
<svg version="1.1" id="Layer_1" xmlns="http://www.w3.org/2000/svg" xmlns:xlink="http://www.w3.org/1999/xlink" x="0px" y="0px"
	 viewBox="0 0 60 60" style="enable-background:new 0 0 60 60;" xml:space="preserve">
<style type="text/css">
	.st0{fill:#5B8FFD;}
	.st1{fill:#FFFFFF;}
	.st2{fill:#F77669;}
	.st3{fill:#FFD066;}
	.st4{fill:#3F3F3F;}
	.st5{fill:#F3C160;}
	.st6{fill:#F2625A;}
	.st7{fill:#FFFFFF;stroke:#FFFFFF;stroke-width:0.9605;stroke-miterlimit:10;}
	.st8{fill:#333333;}
	.st9{fill:#6251DA;}
	.st10{fill:#FC7E47;}
	.st11{fill:#F0FC93;}
	.st12{fill:#828BFF;}
	.st13{fill:#7AB7FF;}
	.st14{fill:#B0D8FF;}
</style>
<g>
	<circle class="st0" cx="30.4" cy="29.7" r="24"/>
	<g>
		<path class="st1" d="M41.6,29.7c1.1,0,1.6-1.4,1.6-2.5c0-1.1-0.4-1.9-1.5-1.9c-0.1,0,0.1,0,0,0l-6.9,0c0.4-1.3,0.7-2.7,0.9-4.1
			l0.1-1.1c0.1-0.5,0-1.1-0.2-1.6c-0.3-0.7-0.8-1.3-1.4-1.7l0,0c-0.5-0.3-1.6-0.3-2,0.1c-0.4,0.3-1.1,0.7-1.1,1.2v1
			c0,0.7,0.2,1.4-0.3,1.9L27.1,26c-0.3,0.4-0.5,0.8-0.6,1.3c-0.2,0.6-0.3,1.2-0.3,1.9l0,10c0,0.3,0.3,0.6,0.6,0.6l14-0.3l0,0
			c0.6-0.2,1-0.7,1-1.4c0-0.6-0.3-1-0.8-1.3l0,0c0.8-0.1,1.5-1.2,1.5-2c0-0.7-0.5-1.3-1.2-1.5l0,0c0,0,0,0,0,0
			c0.9,0,1.6-1.2,1.6-2.1C42.9,30.4,42.3,29.8,41.6,29.7L41.6,29.7C41.6,29.7,41.6,29.7,41.6,29.7z"/>
		<path class="st1" d="M24,38.8c0,0.7-0.5,1.2-1.2,1.2h-3.6c-0.7,0-1.2-0.5-1.2-1.2V26.2c0-0.7,0.5-1.2,1.2-1.2h3.6
			c0.7,0,1.2,0.5,1.2,1.2V38.8z"/>
	</g>
</g>
</svg>
