<?xml version="1.0" encoding="utf-8"?>
<!-- Generator: Adobe Illustrator 20.1.0, SVG Export Plug-In . SVG Version: 6.00 Build 0)  -->
<svg version="1.1" id="Layer_1" xmlns="http://www.w3.org/2000/svg" xmlns:xlink="http://www.w3.org/1999/xlink" x="0px" y="0px"
	 viewBox="0 0 60 60" style="enable-background:new 0 0 60 60;" xml:space="preserve">
<style type="text/css">
	.st0{fill:#5B8FFD;}
	.st1{fill:#FFFFFF;}
	.st2{fill:#F77669;}
	.st3{fill:#FFD066;}
	.st4{fill:#3F3F3F;}
	.st5{fill:#F3C160;}
	.st6{fill:#F2625A;}
	.st7{fill:#FFFFFF;stroke:#FFFFFF;stroke-width:0.9605;stroke-miterlimit:10;}
	.st8{fill:#333333;}
	.st9{fill:#6251DA;}
	.st10{fill:#FC7E47;}
	.st11{fill:#F0FC93;}
	.st12{fill:#828BFF;}
	.st13{fill:#7AB7FF;}
	.st14{fill:#B0D8FF;}
</style>
<g>
	<path class="st3" d="M30.1,6c-13.3,0-24,10.7-24,24s10.7,24,24,24c13.3,0,24-10.7,24-24S43.4,6,30.1,6z"/>
</g>
<path class="st4" d="M39.4,23.9h-2.9c1.1-1,1.3-2.4,0.6-3.7c-0.8-1.4-2.6-1.9-4-1.1c-1.6,0.8-2.5,2.3-3,3.5c-0.5-1.2-1.4-2.7-3-3.5
	l0,0c-1.4-0.8-3.2-0.3-4,1.1c-0.7,1.3-0.5,2.6,0.6,3.7h-2.9c-0.3,0-0.6,0.3-0.6,0.6V39c0,0.3,0.3,0.6,0.6,0.6h18.5
	c0.3,0,0.6-0.3,0.6-0.6V24.5C39.9,24.2,39.7,23.9,39.4,23.9z M33.6,20.2c0.9-0.5,2-0.2,2.5,0.7c0.5,0.9,0.3,1.9-0.7,2.5
	c-0.5,0.4-2.1,0.5-3.5,0.6h-1.1C31.1,22.9,31.9,21.1,33.6,20.2z M24.8,23.4c-0.9-0.7-1.2-1.6-0.7-2.5c0.3-0.6,0.9-0.9,1.6-0.9
	c0.3,0,0.6,0.1,0.9,0.3l0,0c1.6,0.9,2.5,2.8,2.8,3.8h-1C26.9,23.9,25.3,23.8,24.8,23.4z"/>
<rect x="29.3" y="23.7" class="st5" width="1.6" height="15.9"/>
<rect x="29.3" y="22.1" transform="matrix(5.638696e-11 -1 1 5.638696e-11 -1.9188 62.149)" class="st5" width="1.6" height="19.8"/>
</svg>
