<?xml version="1.0" encoding="utf-8"?>
<!-- Generator: Adobe Illustrator 20.1.0, SVG Export Plug-In . SVG Version: 6.00 Build 0)  -->
<svg version="1.1" id="Layer_1" xmlns="http://www.w3.org/2000/svg" xmlns:xlink="http://www.w3.org/1999/xlink" x="0px" y="0px"
	 viewBox="0 0 60 60" style="enable-background:new 0 0 60 60;" xml:space="preserve">
<style type="text/css">
	.st0{fill:#5B8FFD;}
	.st1{fill:#FFFFFF;}
	.st2{fill:#F77669;}
	.st3{fill:#FFD066;}
	.st4{fill:#3F3F3F;}
	.st5{fill:#F3C160;}
	.st6{fill:#F2625A;}
	.st7{fill:#FFFFFF;stroke:#FFFFFF;stroke-width:0.9605;stroke-miterlimit:10;}
	.st8{fill:#333333;}
	.st9{fill:#6251DA;}
	.st10{fill:#FC7E47;}
	.st11{fill:#F0FC93;}
	.st12{fill:#828BFF;}
	.st13{fill:#7AB7FF;}
	.st14{fill:#B0D8FF;}
</style>
<path class="st12" d="M30,5.8c-13.3,0-24,10.7-24,24s10.7,24,24,24c13.3,0,24-10.7,24-24S43.3,5.8,30,5.8z"/>
<g>
	<g>
		<path class="st11" d="M40.8,23.7c0.4-0.1,0.7-0.3,0.9-0.5l0,0c0.4-0.4,0.6-1,0.6-1.6c0-0.6-0.2-1.1-0.6-1.6l-1.1-1.1
			c-0.4-0.4-1-0.6-1.6-0.6c-0.6,0-1.1,0.2-1.6,0.6l0,0c-0.3,0.3-0.4,0.6-0.5,0.9l-0.3-0.3c-0.4-0.4-1-0.6-1.6-0.6
			c-0.6,0-1.1,0.2-1.6,0.6l0,0c-0.3,0.3-0.4,0.6-0.5,0.9l-0.1-0.1c-0.4-0.4-1-0.6-1.6-0.6c-0.6,0-1.1,0.2-1.6,0.6l0,0
			c-0.4,0.4-0.6,1-0.6,1.6c0,0.6,0.2,1.1,0.6,1.6l1.8,1.8l-7.2,7.2l-1.8-1.8c-0.4-0.4-1-0.6-1.6-0.6s-1.1,0.2-1.6,0.6
			c-0.4,0.4-0.6,1-0.6,1.6c0,0.6,0.2,1.1,0.6,1.6l0.1,0.1c-0.4,0.1-0.7,0.3-0.9,0.5l0,0c-0.4,0.4-0.6,1-0.6,1.6s0.2,1.1,0.6,1.6
			l0.4,0.4c-0.4,0.1-0.7,0.3-0.9,0.5l0,0c-0.9,0.9-0.9,2.3,0,3.1l1.1,1.1c0.4,0.4,1,0.6,1.6,0.6c0.6,0,1.1-0.2,1.6-0.6
			c0.3-0.3,0.4-0.6,0.5-0.9l0.3,0.3c0.4,0.4,1,0.6,1.6,0.6c0.6,0,1.1-0.2,1.6-0.6c0.3-0.3,0.4-0.6,0.5-0.9l0.1,0.1
			c0.4,0.4,1,0.6,1.6,0.6c0.6,0,1.1-0.2,1.6-0.6l0,0c0.4-0.4,0.6-1,0.6-1.6s-0.2-1.1-0.6-1.6l-2.2-2.2l7.2-7.2l2.2,2.2
			c0.4,0.4,1,0.6,1.6,0.6c0.6,0,1.1-0.2,1.6-0.6c0.4-0.4,0.6-1,0.6-1.6c0-0.6-0.2-1.1-0.6-1.6l-0.1-0.1c0.4-0.1,0.7-0.3,0.9-0.5
			c0.4-0.4,0.6-1,0.6-1.6c0-0.6-0.2-1.1-0.6-1.6L40.8,23.7z M21.3,40.4c0.2,0.2,0.3,0.5,0.3,0.7c0,0.3-0.1,0.5-0.3,0.7
			c-0.4,0.4-1.1,0.4-1.5,0l-1.1-1.1c-0.4-0.4-0.4-1.1,0-1.5l0,0c0.4-0.4,1.1-0.4,1.5,0L21.3,40.4z M25.3,41.3
			c-0.4,0.4-1.1,0.4-1.5,0l-4.5-4.5C19.1,36.5,19,36.2,19,36c0-0.3,0.1-0.5,0.3-0.7l0,0c0.4-0.4,1.1-0.4,1.5,0l4.5,4.6
			C25.8,40.2,25.8,40.9,25.3,41.3z M29.4,39.7c0,0.3-0.1,0.5-0.3,0.7l0,0c-0.4,0.4-1.1,0.4-1.5,0L26.2,39l0,0l-4.5-4.6l-1.5-1.5
			c-0.2-0.2-0.3-0.5-0.3-0.7c0-0.3,0.1-0.5,0.3-0.7c0.2-0.2,0.4-0.3,0.7-0.3s0.5,0.1,0.7,0.3l7.5,7.5C29.3,39.1,29.4,39.4,29.4,39.7
			z M27,35.1l-1.9-1.9l7.2-7.2l1.9,1.9L27,35.1z M39.4,30.1c-0.4,0.4-1.1,0.4-1.5,0l-7.5-7.4c-0.2-0.2-0.3-0.5-0.3-0.7
			s0.1-0.5,0.3-0.7l0,0c0.4-0.4,1.1-0.4,1.5,0l1.5,1.5l0,0l4.5,4.5l0,0l1.5,1.5c0.2,0.2,0.3,0.5,0.3,0.7
			C39.7,29.7,39.6,29.9,39.4,30.1z M38,20.4c0-0.3,0.1-0.5,0.3-0.7l0,0c0.4-0.4,1.1-0.4,1.5,0l1.1,1.1c0.2,0.2,0.4,0.5,0.4,0.7
			s-0.1,0.5-0.3,0.7l0,0c-0.4,0.4-1.1,0.4-1.5,0l-1.1-1.1C38.1,21,38,20.8,38,20.4z M40.3,26.3c-0.4,0.4-1.1,0.4-1.5,0l-4.5-4.5
			c-0.4-0.4-0.4-1.1,0-1.5l0,0c0.4-0.4,1.1-0.4,1.5,0l1.7,1.7l1.1,1.1l0,0l1.7,1.7c0.2,0.2,0.3,0.5,0.3,0.7
			C40.6,25.9,40.5,26.1,40.3,26.3z"/>
		<path class="st11" d="M20.6,43.5c-0.6,0-1.2-0.2-1.7-0.7l-1.1-1.1c-0.9-0.9-0.9-2.4,0-3.3c0.2-0.2,0.5-0.4,0.8-0.5l-0.2-0.2
			c-0.4-0.5-0.7-1.1-0.7-1.7s0.2-1.2,0.7-1.7c0.2-0.2,0.5-0.4,0.8-0.5c-0.4-0.5-0.6-1-0.6-1.6c0-0.6,0.2-1.2,0.7-1.7
			c0.5-0.4,1.1-0.7,1.7-0.7c0.6,0,1.2,0.2,1.7,0.7l1.7,1.7l7-7l-1.7-1.7c-0.4-0.5-0.7-1.1-0.7-1.7s0.2-1.2,0.7-1.7
			c0.5-0.4,1.1-0.7,1.7-0.7c0.6,0,1.2,0.2,1.6,0.6c0.1-0.2,0.3-0.5,0.5-0.8c0.5-0.4,1.1-0.7,1.7-0.7c0.6,0,1.2,0.2,1.7,0.7l0.2,0.2
			c0.1-0.3,0.3-0.6,0.5-0.8c0.5-0.4,1.1-0.7,1.7-0.7c0.6,0,1.2,0.2,1.7,0.7l1.1,1.1c0.4,0.5,0.7,1.1,0.7,1.7s-0.2,1.2-0.7,1.7
			c-0.2,0.2-0.5,0.4-0.8,0.5l0.2,0.1c0.4,0.5,0.7,1.1,0.7,1.7c0,0.6-0.2,1.2-0.7,1.7c-0.2,0.2-0.5,0.4-0.8,0.5
			c0.4,0.5,0.6,1,0.6,1.6c0,0.6-0.2,1.2-0.7,1.7c-0.5,0.4-1.1,0.7-1.7,0.7c-0.6,0-1.2-0.2-1.7-0.7L35,28.9l-7,7L30,38
			c0.4,0.5,0.7,1.1,0.7,1.7s-0.2,1.2-0.7,1.7c-0.5,0.4-1.1,0.7-1.7,0.7c-0.6,0-1.2-0.2-1.6-0.6c-0.1,0.3-0.3,0.6-0.5,0.8
			c-0.5,0.4-1.1,0.7-1.7,0.7c-0.6,0-1.2-0.2-1.7-0.7L22.8,42c-0.1,0.3-0.3,0.6-0.5,0.8C21.8,43.2,21.2,43.5,20.6,43.5z M20.9,30.1
			c-0.5,0-1.1,0.2-1.5,0.6c-0.4,0.4-0.6,0.9-0.6,1.5c0,0.5,0.2,1.1,0.6,1.5l0.2,0.2L19.5,34c-0.4,0.1-0.7,0.3-0.9,0.5
			C18.2,34.9,18,35.4,18,36s0.2,1.1,0.6,1.5l0.5,0.5L18.9,38c-0.4,0.1-0.7,0.3-0.9,0.5c-0.8,0.8-0.8,2.1,0,3l1.1,1.1
			c0.4,0.4,0.9,0.6,1.5,0.6c0.5,0,1.1-0.2,1.5-0.6c0.2-0.2,0.4-0.5,0.5-0.9l0.1-0.2l0.5,0.5c0.4,0.4,0.9,0.6,1.5,0.6
			c0.5,0,1.1-0.2,1.5-0.6c0.2-0.2,0.4-0.5,0.5-0.9l0.1-0.2l0.2,0.2c0.4,0.4,0.9,0.6,1.5,0.6c0.5,0,1.1-0.2,1.5-0.6
			c0.4-0.4,0.6-0.9,0.6-1.5c0-0.5-0.2-1.1-0.6-1.5l-2.2-2.2l0.1-0.1l7.3-7.3l2.2,2.2c0.4,0.4,0.9,0.6,1.5,0.6c0.5,0,1.1-0.2,1.5-0.6
			c0.4-0.4,0.6-0.9,0.6-1.5c0-0.5-0.2-1.1-0.6-1.5L40,27.6l0.2-0.1c0.4-0.1,0.7-0.3,0.9-0.5c0.4-0.4,0.6-0.9,0.6-1.5
			c0-0.5-0.2-1.1-0.6-1.5l-0.5-0.4l0.2-0.1c0.4-0.1,0.7-0.3,0.9-0.5c0.4-0.4,0.6-0.9,0.6-1.5s-0.2-1.1-0.6-1.5L40.5,19
			c-0.4-0.4-0.9-0.6-1.5-0.6c-0.5,0-1.1,0.2-1.5,0.6c-0.2,0.2-0.4,0.5-0.5,0.9L36.9,20l-0.5-0.5C36.1,19.2,35.6,19,35,19
			c-0.5,0-1.1,0.2-1.5,0.6c-0.3,0.3-0.4,0.6-0.5,0.9l-0.1,0.2l-0.2-0.2c-0.4-0.4-0.9-0.6-1.5-0.6c-0.5,0-1.1,0.2-1.5,0.6
			c-0.4,0.4-0.6,0.9-0.6,1.5s0.2,1.1,0.6,1.5l1.8,1.8l-0.1,0.1l-7.3,7.3l-1.9-1.9C22,30.3,21.5,30.1,20.9,30.1z M20.6,42.3
			c-0.3,0-0.6-0.1-0.8-0.3l-1.1-1.1c-0.2-0.2-0.3-0.5-0.3-0.8c0-0.3,0.1-0.6,0.3-0.8c0.4-0.4,1.2-0.4,1.6,0l1.1,1.1
			c0.2,0.2,0.4,0.5,0.4,0.8c0,0.3-0.1,0.6-0.4,0.8C21.2,42.2,20.9,42.3,20.6,42.3z M19.5,39.1c-0.2,0-0.5,0.1-0.6,0.3
			c-0.2,0.2-0.3,0.4-0.3,0.6c0,0.2,0.1,0.5,0.3,0.6l1.1,1.1c0.3,0.3,0.9,0.3,1.3,0c0.2-0.2,0.3-0.4,0.3-0.7c0-0.2-0.1-0.5-0.3-0.7
			l-1.1-1.1C19.9,39.2,19.7,39.1,19.5,39.1z M24.6,41.7c-0.3,0-0.6-0.1-0.8-0.3l-4.5-4.5c-0.2-0.2-0.4-0.5-0.4-0.8s0.1-0.6,0.4-0.8
			c0.4-0.4,1.2-0.4,1.6,0l4.5,4.6c0.2,0.2,0.4,0.5,0.4,0.8c0,0.3-0.1,0.6-0.4,0.8C25.2,41.6,24.9,41.7,24.6,41.7z M20.1,35
			c-0.2,0-0.5,0.1-0.6,0.3c-0.2,0.2-0.3,0.4-0.3,0.7s0.1,0.5,0.3,0.7l4.5,4.5c0.3,0.3,0.9,0.3,1.3,0l0,0c0.2-0.2,0.3-0.4,0.3-0.6
			c0-0.2-0.1-0.5-0.3-0.6l-4.6-4.6C20.5,35.1,20.3,35,20.1,35z M28.4,40.9c-0.3,0-0.6-0.1-0.8-0.3l-1.5-1.5l-6-6
			c-0.2-0.2-0.4-0.5-0.4-0.8s0.1-0.6,0.4-0.8c0.2-0.2,0.5-0.3,0.8-0.3c0.3,0,0.6,0.1,0.8,0.4l7.5,7.5c0.2,0.2,0.3,0.5,0.3,0.8
			c0,0.3-0.1,0.6-0.4,0.8C29,40.7,28.7,40.9,28.4,40.9z M20.9,31.3c-0.2,0-0.5,0.1-0.6,0.2C20.1,31.7,20,32,20,32.2s0.1,0.5,0.3,0.7
			l1.4,1.5l6,6c0.3,0.3,0.9,0.3,1.3,0c0.2-0.2,0.3-0.4,0.3-0.7c0-0.2-0.1-0.5-0.2-0.6l-7.5-7.5C21.4,31.4,21.1,31.3,20.9,31.3z
			 M27,35.3l-2.1-2.1l0.1-0.1l7.3-7.3l2.1,2.1L34.3,28L27,35.3z M25.2,33.2L27,35l7-7l-1.7-1.7L25.2,33.2z M38.7,30.5
			c-0.3,0-0.6-0.1-0.8-0.3l-7.5-7.4c-0.2-0.2-0.4-0.5-0.4-0.8c0-0.3,0.1-0.6,0.4-0.8c0.2-0.2,0.5-0.3,0.8-0.3s0.6,0.1,0.8,0.3
			l7.4,7.4c0.2,0.2,0.4,0.5,0.4,0.8c0,0.4-0.1,0.6-0.3,0.8v0C39.3,30.4,39,30.5,38.7,30.5z M31.2,21c-0.2,0-0.5,0.1-0.6,0.3
			c-0.2,0.2-0.3,0.4-0.3,0.7s0.1,0.5,0.3,0.7l7.5,7.4c0.3,0.3,0.9,0.3,1.3,0l0,0c0.2-0.2,0.2-0.4,0.2-0.7c0-0.2-0.1-0.5-0.3-0.7
			l-7.4-7.4C31.7,21.1,31.5,21,31.2,21z M39.5,26.7c-0.3,0-0.6-0.1-0.8-0.3l-4.5-4.5c-0.2-0.2-0.3-0.5-0.3-0.8
			c0-0.3,0.1-0.6,0.3-0.8c0.4-0.4,1.2-0.4,1.6,0l4.5,4.5c0.2,0.2,0.4,0.5,0.4,0.8c0,0.3-0.1,0.6-0.3,0.8l0,0
			C40.1,26.6,39.9,26.7,39.5,26.7z M35,20.2c-0.2,0-0.5,0.1-0.6,0.3c-0.2,0.2-0.3,0.4-0.3,0.6c0,0.2,0.1,0.5,0.3,0.6l4.5,4.5
			c0.3,0.3,0.9,0.3,1.3,0v0c0.2-0.2,0.3-0.4,0.2-0.6c0-0.3-0.1-0.5-0.3-0.7l-4.5-4.5C35.5,20.2,35.2,20.2,35,20.2z M40.1,22.8
			c-0.3,0-0.6-0.1-0.8-0.3l-1.1-1.1c-0.2-0.3-0.4-0.6-0.4-0.9c0-0.3,0.1-0.6,0.3-0.8c0.2-0.2,0.5-0.3,0.8-0.3c0.3,0,0.6,0.1,0.8,0.3
			l1.1,1.1c0.2,0.2,0.4,0.5,0.4,0.8c0,0.3-0.1,0.6-0.4,0.8C40.7,22.7,40.4,22.8,40.1,22.8z M39,19.6c-0.2,0-0.5,0.1-0.6,0.3
			c-0.1,0.1-0.2,0.4-0.2,0.6c0,0.3,0.1,0.5,0.3,0.7l1.1,1.1c0.3,0.3,0.9,0.3,1.3,0c0.2-0.2,0.3-0.4,0.3-0.7c0-0.2-0.1-0.5-0.3-0.6
			l-1.1-1.1C39.4,19.7,39.2,19.6,39,19.6z"/>
	</g>
</g>
</svg>
