<?xml version="1.0" encoding="utf-8"?>
<!-- Generator: Adobe Illustrator 20.1.0, SVG Export Plug-In . SVG Version: 6.00 Build 0)  -->
<svg version="1.1" id="Layer_1" xmlns="http://www.w3.org/2000/svg" xmlns:xlink="http://www.w3.org/1999/xlink" x="0px" y="0px"
	 viewBox="0 0 60 60" style="enable-background:new 0 0 60 60;" xml:space="preserve">
<style type="text/css">
	.st0{fill:#5B8FFD;}
	.st1{fill:#FFFFFF;}
	.st2{fill:#F77669;}
	.st3{fill:#FFD066;}
	.st4{fill:#3F3F3F;}
	.st5{fill:#F3C160;}
	.st6{fill:#F2625A;}
	.st7{fill:#FFFFFF;stroke:#FFFFFF;stroke-width:0.9605;stroke-miterlimit:10;}
	.st8{fill:#333333;}
	.st9{fill:#6251DA;}
	.st10{fill:#FC7E47;}
	.st11{fill:#F0FC93;}
	.st12{fill:#828BFF;}
	.st13{fill:#7AB7FF;}
	.st14{fill:#B0D8FF;}
</style>
<g>
	<polygon class="st3" points="30.3,6.2 35.8,23.2 53.8,23.2 39.3,33.7 44.8,50.7 30.3,40.2 15.8,50.7 21.3,33.7 6.8,23.2 24.8,23.2 
			"/>
	<g>
		<path class="st4" d="M26.8,33.6c3.3-2.5,4.5-3.6,4.5-4.8c0-0.9-0.8-1.3-1.5-1.3c-1,0-1.7,0.4-2.3,1l-0.9-1
			c0.7-0.9,1.9-1.3,3.1-1.3c1.6,0,3,0.9,3,2.6c0,1.5-1.4,2.9-3.7,4.6h3.7v1.3h-6.1V33.6z"/>
	</g>
</g>
</svg>
