<?xml version="1.0" encoding="utf-8"?>
<!-- Generator: Adobe Illustrator 20.1.0, SVG Export Plug-In . SVG Version: 6.00 Build 0)  -->
<svg version="1.1" id="Layer_1" xmlns="http://www.w3.org/2000/svg" xmlns:xlink="http://www.w3.org/1999/xlink" x="0px" y="0px"
	 viewBox="0 0 60 60" style="enable-background:new 0 0 60 60;" xml:space="preserve">
<style type="text/css">
	.st0{fill:#5B8FFD;}
	.st1{fill:#FFFFFF;}
	.st2{fill:#F77669;}
	.st3{fill:#FFD066;}
	.st4{fill:#3F3F3F;}
	.st5{fill:#F3C160;}
	.st6{fill:#F2625A;}
	.st7{fill:#FFFFFF;stroke:#FFFFFF;stroke-width:0.9605;stroke-miterlimit:10;}
	.st8{fill:#333333;}
	.st9{fill:#6251DA;}
	.st10{fill:#FC7E47;}
	.st11{fill:#F0FC93;}
	.st12{fill:#828BFF;}
	.st13{fill:#7AB7FF;}
	.st14{fill:#B0D8FF;}
</style>
<g>
	<g>
		<path class="st3" d="M30,6.8c-13.3,0-24,10.7-24,24s10.7,24,24,24c13.3,0,24-10.7,24-24S43.3,6.8,30,6.8z"/>
	</g>
	<path class="st4" d="M39.2,32.8l-4.8,5l0,0l-2.9,3c-0.8,0.8-2.1,0.8-2.9,0l-2.9-3l0,0l-4.9-5c-2.4-2.5-2.4-6.4,0-8.9
		c2.4-2.5,6.3-2.5,8.7,0l0.5,0.5l0.3-0.3c2.5-2.5,6.6-2.6,9-0.1C41.6,26.4,41.6,30.3,39.2,32.8L39.2,32.8z"/>
</g>
</svg>
