<?xml version="1.0" encoding="utf-8"?>
<!-- Generator: Adobe Illustrator 20.1.0, SVG Export Plug-In . SVG Version: 6.00 Build 0)  -->
<svg version="1.1" id="Layer_1" xmlns="http://www.w3.org/2000/svg" xmlns:xlink="http://www.w3.org/1999/xlink" x="0px" y="0px"
	 viewBox="0 0 60 60" style="enable-background:new 0 0 60 60;" xml:space="preserve">
<style type="text/css">
	.st0{fill:#5B8FFD;}
	.st1{fill:#FFFFFF;}
	.st2{fill:#F77669;}
	.st3{fill:#FFD066;}
	.st4{fill:#3F3F3F;}
	.st5{fill:#F3C160;}
	.st6{fill:#F2625A;}
	.st7{fill:#FFFFFF;stroke:#FFFFFF;stroke-width:0.9605;stroke-miterlimit:10;}
	.st8{fill:#333333;}
	.st9{fill:#6251DA;}
	.st10{fill:#FC7E47;}
	.st11{fill:#F0FC93;}
	.st12{fill:#828BFF;}
	.st13{fill:#7AB7FF;}
	.st14{fill:#B0D8FF;}
</style>
<path class="st13" d="M30,5.8c-13.3,0-24,10.7-24,24s10.7,24,24,24c13.3,0,24-10.7,24-24S43.3,5.8,30,5.8z"/>
<g>
	<g>
		<g>
			<g>
				<path class="st11" d="M33.7,23h5.7c0.8,0,1.4,0.6,1.4,1.4v12.7c0,0.8-0.6,1.4-1.4,1.4H19.5c-0.8,0-1.4-0.6-1.4-1.4V24.4l0,0
					c0-0.8,0.6-1.4,1.4-1.4h5H33.7z M31.5,29.4H40v-5c0-0.4-0.3-0.7-0.7-0.7h-5.7H33h-0.7h-0.7h-5h-0.7h-0.7h-0.7h-5
					c-0.4,0-0.7,0.3-0.7,0.7v5h8.5c0-0.8,0.6-1.4,1.4-1.4h1.4C30.9,28,31.5,28.6,31.5,29.4L31.5,29.4z M40,30.1h-8.5v0.7
					c0,0.8-0.6,1.4-1.4,1.4h-1.4c-0.8,0-1.4-0.6-1.4-1.4v-0.7h-8.5v7.1c0,0.4,0.3,0.7,0.7,0.7h19.8c0.4,0,0.7-0.3,0.7-0.7V30.1
					L40,30.1z M28,30.1v0.7c0,0.4,0.3,0.7,0.7,0.7h1.4c0.4,0,0.7-0.3,0.7-0.7v-0.7v-0.7c0-0.4-0.3-0.7-0.7-0.7h-1.4
					c-0.4,0-0.7,0.3-0.7,0.7V30.1z"/>
				<path class="st11" d="M39.3,38.9H19.5c-1,0-1.8-0.8-1.8-1.8V24.4c0-1,0.8-1.8,1.8-1.8h19.8c1,0,1.8,0.8,1.8,1.8v12.7
					C41.1,38.1,40.3,38.9,39.3,38.9z M19.5,23.3c-0.6,0-1.1,0.5-1.1,1.1v12.7c0,0.6,0.5,1.1,1.1,1.1h19.8c0.6,0,1.1-0.5,1.1-1.1
					V24.4c0-0.6-0.5-1.1-1.1-1.1H19.5z M39.3,38.2H19.5c-0.6,0-1.1-0.5-1.1-1.1V24.4c0-0.6,0.5-1.1,1.1-1.1h19.8
					c0.6,0,1.1,0.5,1.1,1.1v12.7C40.4,37.7,39.9,38.2,39.3,38.2z M19.1,30.4v6.7c0,0.2,0.2,0.4,0.4,0.4h19.8c0.2,0,0.4-0.2,0.4-0.4
					v-6.7h-7.8v0.4c0,1-0.8,1.8-1.8,1.8h-1.4c-1,0-1.8-0.8-1.8-1.8v-0.4H19.1z M27.6,29.7v1.1c0,0.6,0.5,1.1,1.1,1.1h1.4
					c0.6,0,1.1-0.5,1.1-1.1v-1.4c0-0.6-0.5-1.1-1.1-1.1h-1.4c-0.6,0-1.1,0.5-1.1,1.1V29.7z M31.9,29h7.8v-4.6c0-0.2-0.2-0.4-0.4-0.4
					H19.5c-0.2,0-0.4,0.2-0.4,0.4V29H27c0.2-0.8,0.9-1.4,1.7-1.4h1.4C31,27.6,31.7,28.2,31.9,29z M30.1,31.9h-1.4
					c-0.6,0-1.1-0.5-1.1-1.1v-1.4c0-0.6,0.5-1.1,1.1-1.1h1.4c0.6,0,1.1,0.5,1.1,1.1v1.4C31.2,31.4,30.7,31.9,30.1,31.9z M28.7,29
					c-0.2,0-0.4,0.2-0.4,0.4v1.4c0,0.2,0.2,0.4,0.4,0.4h1.4c0.2,0,0.4-0.2,0.4-0.4v-1.4c0-0.2-0.2-0.4-0.4-0.4H28.7z"/>
			</g>
		</g>
		<path class="st11" d="M34.8,23.4h-1.4v-2.8c0,0,0-0.1-0.1-0.1h-7.8c0,0-0.1,0-0.1,0.1v2.8H24v-2.8c0-0.8,0.7-1.5,1.5-1.5h7.8
			c0.8,0,1.5,0.7,1.5,1.5V23.4z"/>
	</g>
</g>
</svg>
