<?xml version="1.0" encoding="utf-8"?>
<!-- Generator: Adobe Illustrator 20.1.0, SVG Export Plug-In . SVG Version: 6.00 Build 0)  -->
<svg version="1.1" id="Layer_1" xmlns="http://www.w3.org/2000/svg" xmlns:xlink="http://www.w3.org/1999/xlink" x="0px" y="0px"
	 viewBox="0 0 60 60" style="enable-background:new 0 0 60 60;" xml:space="preserve">
<style type="text/css">
	.st0{fill:#5B8FFD;}
	.st1{fill:#FFFFFF;}
	.st2{fill:#F77669;}
	.st3{fill:#FFD066;}
	.st4{fill:#3F3F3F;}
	.st5{fill:#F3C160;}
	.st6{fill:#F2625A;}
	.st7{fill:#FFFFFF;stroke:#FFFFFF;stroke-width:0.9605;stroke-miterlimit:10;}
	.st8{fill:#333333;}
	.st9{fill:#6251DA;}
	.st10{fill:#FC7E47;}
	.st11{fill:#F0FC93;}
	.st12{fill:#828BFF;}
	.st13{fill:#7AB7FF;}
	.st14{fill:#B0D8FF;}
</style>
<path class="st9" d="M30,5.8c-13.3,0-24,10.7-24,24s10.7,24,24,24c13.3,0,24-10.7,24-24S43.3,5.8,30,5.8z"/>
<path class="st11" d="M43.4,29L30.5,16.1c-0.3-0.3-0.8-0.3-1.1,0L16.6,29c-0.3,0.3-0.3,0.8,0,1.1c0.1,0.1,0.3,0.2,0.5,0.2
	c0.2,0,0.4-0.1,0.5-0.2L30,17.7l12.3,12.3c0.3,0.3,0.8,0.3,1.1,0S43.7,29.3,43.4,29z M38.2,28.7c-0.4,0-0.8,0.3-0.8,0.8v11.9h-4
	v-7.2c0-0.4-0.3-0.8-0.8-0.8h-5.4c-0.4,0-0.8,0.3-0.8,0.8v7.2h-4V29.5c0-0.4-0.3-0.8-0.8-0.8c-0.4,0-0.8,0.3-0.8,0.8v12.7
	c0,0.4,0.3,0.8,0.8,0.8h5.5c0.4,0,0.8-0.3,0.8-0.8V35h3.8v7.2c0,0.4,0.3,0.8,0.8,0.8h5.5c0.4,0,0.8-0.3,0.8-0.8V29.5
	C38.9,29.1,38.6,28.7,38.2,28.7z"/>
</svg>
