<?xml version="1.0" encoding="utf-8"?>
<!-- Generator: Adobe Illustrator 20.1.0, SVG Export Plug-In . SVG Version: 6.00 Build 0)  -->
<svg version="1.1" id="Layer_1" xmlns="http://www.w3.org/2000/svg" xmlns:xlink="http://www.w3.org/1999/xlink" x="0px" y="0px"
	 viewBox="0 0 60 60" style="enable-background:new 0 0 60 60;" xml:space="preserve">
<style type="text/css">
	.st0{fill:#5B8FFD;}
	.st1{fill:#FFFFFF;}
	.st2{fill:#F77669;}
	.st3{fill:#FFD066;}
	.st4{fill:#3F3F3F;}
	.st5{fill:#F3C160;}
	.st6{fill:#F2625A;}
	.st7{fill:#FFFFFF;stroke:#FFFFFF;stroke-width:0.9605;stroke-miterlimit:10;}
	.st8{fill:#333333;}
	.st9{fill:#6251DA;}
	.st10{fill:#FC7E47;}
	.st11{fill:#F0FC93;}
	.st12{fill:#828BFF;}
	.st13{fill:#7AB7FF;}
	.st14{fill:#B0D8FF;}
</style>
<g>
	<polygon class="st3" points="31.1,6.2 36.6,23.2 54.5,23.2 40,33.7 45.6,50.7 31.1,40.2 16.5,50.7 22.1,33.7 7.6,23.2 25.5,23.2 	
		"/>
	<g>
		<path class="st4" d="M28.5,32.6c0.6,0.6,1.3,1,2.3,1c1.1,0,1.7-0.7,1.7-1.5c0-0.9-0.7-1.5-1.7-1.5c-0.7,0-1.3,0.2-1.8,0.7l-1-0.3
			v-4.7h5.5v1.3h-4V30c0.4-0.4,1.1-0.7,1.9-0.7c1.4,0,2.7,1,2.7,2.7c0,1.7-1.3,2.8-3.2,2.8c-1.4,0-2.4-0.5-3.1-1.3L28.5,32.6z"/>
	</g>
</g>
</svg>
