<?xml version="1.0" encoding="utf-8"?>
<!-- Generator: Adobe Illustrator 20.1.0, SVG Export Plug-In . SVG Version: 6.00 Build 0)  -->
<svg version="1.1" id="Layer_1" xmlns="http://www.w3.org/2000/svg" xmlns:xlink="http://www.w3.org/1999/xlink" x="0px" y="0px"
	 viewBox="0 0 60 60" style="enable-background:new 0 0 60 60;" xml:space="preserve">
<style type="text/css">
	.st0{fill:#5B8FFD;}
	.st1{fill:#FFFFFF;}
	.st2{fill:#F77669;}
	.st3{fill:#FFD066;}
	.st4{fill:#3F3F3F;}
	.st5{fill:#F3C160;}
	.st6{fill:#F2625A;}
	.st7{fill:#FFFFFF;stroke:#FFFFFF;stroke-width:0.9605;stroke-miterlimit:10;}
	.st8{fill:#333333;}
	.st9{fill:#6251DA;}
	.st10{fill:#FC7E47;}
	.st11{fill:#F0FC93;}
	.st12{fill:#828BFF;}
	.st13{fill:#7AB7FF;}
	.st14{fill:#B0D8FF;}
</style>
<path class="st14" d="M30.5,6c-13.3,0-24,10.7-24,24s10.7,24,24,24c13.3,0,24-10.7,24-24S43.8,6,30.5,6z"/>
<g>
	<g>
		<path class="st11" d="M26.6,23.8v-4.6c0-0.4-0.3-0.7-0.7-0.7c-0.4,0-0.7,0.3-0.7,0.7v4.6c0,0.4,0.3,0.7,0.7,0.7
			S26.6,24.2,26.6,23.8z"/>
		<path class="st11" d="M34.9,23.8v-4.6c0-0.4-0.3-0.7-0.7-0.7c-0.4,0-0.7,0.3-0.7,0.7v4.6c0,0.4,0.3,0.7,0.7,0.7
			C34.6,24.5,34.9,24.2,34.9,23.8z"/>
		<path class="st11" d="M25.1,29.1c-1.4,0-2.6,1.2-2.6,2.6s1.2,2.6,2.6,2.6c1.4,0,2.6-1.1,2.6-2.5S26.6,29.1,25.1,29.1z M25.1,32.8
			c-0.6,0-1.1-0.5-1.1-1.1s0.5-1.1,1.1-1.1s1.1,0.5,1.1,1.1S25.7,32.8,25.1,32.8z"/>
		<path class="st11" d="M26.2,35.4H24c-0.4,0-0.7,0.3-0.7,0.7c0,0.4,0.3,0.7,0.7,0.7h2.2c0.4,0,0.7-0.3,0.7-0.7
			C27,35.7,26.6,35.4,26.2,35.4z"/>
		<path class="st11" d="M31.5,35.4h-2.2c-0.4,0-0.7,0.3-0.7,0.7c0,0.4,0.3,0.7,0.7,0.7h2.2c0.4,0,0.7-0.3,0.7-0.7
			C32.2,35.7,31.9,35.4,31.5,35.4z"/>
		<path class="st11" d="M31.5,31h-2.2c-0.4,0-0.7,0.3-0.7,0.7c0,0.4,0.3,0.7,0.7,0.7h2.2c0.4,0,0.7-0.3,0.7-0.7
			C32.2,31.3,31.9,31,31.5,31z"/>
		<path class="st11" d="M36.7,35.4h-2.2c-0.4,0-0.7,0.3-0.7,0.7c0,0.4,0.3,0.7,0.7,0.7h2.2c0.4,0,0.7-0.3,0.7-0.7
			C37.5,35.7,37.1,35.4,36.7,35.4z"/>
		<path class="st11" d="M36.7,31h-2.2c-0.4,0-0.7,0.3-0.7,0.7c0,0.4,0.3,0.7,0.7,0.7h2.2c0.4,0,0.7-0.3,0.7-0.7
			C37.5,31.3,37.1,31,36.7,31z"/>
		<path class="st11" d="M37.8,21.3h-1.3c-0.4,0-0.7,0.3-0.7,0.7s0.3,0.7,0.7,0.7h1.3c0.7,0,1.3,0.6,1.3,1.3v2.5H20.9v-2.5
			c0-0.7,0.6-1.3,1.3-1.3h1.3c0.4,0,0.7-0.3,0.7-0.7s-0.3-0.7-0.7-0.7h-1.3c-1.5,0-2.8,1.2-2.8,2.8v13.1c0,1.5,1.2,2.8,2.8,2.8h15.5
			c1.5,0,2.8-1.2,2.8-2.8V24.1C40.5,22.6,39.3,21.3,37.8,21.3z M37.8,38.5H22.2c-0.7,0-1.3-0.6-1.3-1.3v-9.1h18.1v9.1
			C39.1,37.9,38.5,38.5,37.8,38.5z"/>
		<path class="st11" d="M31.9,22.8c0.4,0,0.7-0.3,0.7-0.7c0-0.4-0.3-0.7-0.7-0.7h-3.8c-0.4,0-0.7,0.3-0.7,0.7c0,0.4,0.3,0.7,0.7,0.7
			H31.9z"/>
	</g>
</g>
</svg>
