<?xml version="1.0" encoding="utf-8"?>
<!-- Generator: Adobe Illustrator 19.0.0, SVG Export Plug-In . SVG Version: 6.00 Build 0)  -->
<svg version="1.1" id="Layer_1" xmlns:sketch="http://www.bohemiancoding.com/sketch/ns"
	 xmlns="http://www.w3.org/2000/svg" xmlns:xlink="http://www.w3.org/1999/xlink" x="0px" y="0px"
	 viewBox="-1167.9 696 105.8 105.8" style="enable-background:new -1167.9 696 105.8 105.8;" xml:space="preserve">
<style type="text/css">
	.st0{fill:#FFDA6A;}
	.st1{display:none;}
</style>
<ellipse id="body" class="st0" cx="-1115" cy="748.9" rx="52.9" ry="52.9"/>
<ellipse cx="-1102" cy="727.8" rx="6.6" ry="13.7"/>
<path d="M-1120.8,731c0,5.7-3,10.4-6.6,10.4c-3.7,0-6.6-4.6-6.6-10.4c0-7.5-6.2-2.5-6.3-7.5c0-1.8,1.4-2.8,4.3-2.8
	c3.2,0,6.5,0,8.7,0C-1124.1,720.7-1120.8,725.3-1120.8,731z"/>
<path class="st1" d="M-1088.1,749.3c1.3,1.3,1.3,3.3,0.1,4.6c0,0-11.1,9.6-27.7,9.6c-14.7,0-23.8-8.5-23.9-8.6
	c-1.6-0.9-2.2-2.8-1.4-4.4c0.8-1.6,2.7-2.3,4.3-1.6c0,0,10.4,7.9,20.9,7.9s22.9-7.6,23-7.6C-1091.5,748-1089.4,748-1088.1,749.3z"/>
<path d="M-1139.7,754.1c5.2,5.7,14.4,9.2,24.7,9.2c10.3,0,19.8-3.6,24.8-9.2c1.1-1.1,0.5-2.6-1.2-3.2c-1.7-0.7-4-0.3-4.9,0.8
	c-3.8,4.2-10.9,6.9-18.7,6.9c-7.7,0-14.7-2.6-18.5-6.9c-1.1-1.1-3.2-1.5-4.9-0.8C-1140.2,751.6-1140.7,753-1139.7,754.1z"/>
</svg>
