<?xml version="1.0" encoding="utf-8"?>
<!-- Generator: Adobe Illustrator 19.0.0, SVG Export Plug-In . SVG Version: 6.00 Build 0)  -->
<svg version="1.1" id="Layer_1" xmlns:sketch="http://www.bohemiancoding.com/sketch/ns"
	 xmlns="http://www.w3.org/2000/svg" xmlns:xlink="http://www.w3.org/1999/xlink" x="0px" y="0px" viewBox="-585 348 108 106"
	 style="enable-background:new -585 348 108 106;" xml:space="preserve">
<style type="text/css">
	.st0{fill:#FFDA6A;}
</style>
<title>ya</title>
<desc>Created with Sketch.</desc>
<g id="FB-emojii-Freebies" sketch:type="MSPage">
	<g id="ya" transform="translate(-592.000000, -99.000000)" sketch:type="MSArtboardGroup">
		<g transform="translate(594.117647, 99.000000)" sketch:type="MSLayerGroup">
			<g id="emoji" transform="translate(0.000000, 0.000000)" sketch:type="MSShapeGroup">
				<ellipse id="body" class="st0" cx="-532.1" cy="400.9" rx="52.9" ry="52.9"/>
			</g>
		</g>
	</g>
</g>
<ellipse cx="-517" cy="379.8" rx="6.6" ry="13.7"/>
<path d="M-535.8,383c0,5.7-3,10.4-6.6,10.4c-3.7,0-6.6-4.6-6.6-10.4c0-7.5-6.2-2.5-6.3-7.5c-0.1-3.8,11-2.8,13-2.8
	C-538.8,372.7-535.8,377.3-535.8,383z"/>
<path d="M-503.1,401.3c1.3,1.3,1.3,3.3,0.1,4.6c0,0-11.1,9.6-27.7,9.6c-14.7,0-23.8-8.5-23.9-8.6c-1.6-0.9-2.2-2.8-1.4-4.4
	c0.8-1.6,2.7-2.3,4.3-1.6c0,0,10.4,7.9,20.9,7.9c10.5,0,22.9-7.6,23-7.6C-506.5,400-504.4,400-503.1,401.3z"/>
</svg>
