<?xml version="1.0" encoding="utf-8"?>
<!-- Generator: Adobe Illustrator 19.0.0, SVG Export Plug-In . SVG Version: 6.00 Build 0)  -->
<svg version="1.1" id="Layer_1" xmlns:sketch="http://www.bohemiancoding.com/sketch/ns"
	 xmlns="http://www.w3.org/2000/svg" xmlns:xlink="http://www.w3.org/1999/xlink" x="0px" y="0px"
	 viewBox="-1171.9 696 105.8 105.8" style="enable-background:new -1171.9 696 105.8 105.8;" xml:space="preserve">
<style type="text/css">
	.st0{fill:#FFDA6A;}
</style>
<ellipse id="body" class="st0" cx="-1119" cy="748.9" rx="52.9" ry="52.9"/>
<path d="M-1142.1,749.4c3.6,0,6.5-3.2,6.5-7.1c0-3.9-2.9-7.1-6.5-7.1s-6.5,3.2-6.5,7.1S-1145.7,749.4-1142.1,749.4z M-1096.2,749.4
	c3.6,0,6.5-3.2,6.5-7.1c0-3.9-2.9-7.1-6.5-7.1s-6.5,3.2-6.5,7.1S-1099.8,749.4-1096.2,749.4z M-1103,769.2
	c-3.4-5.7-9.4-9.2-16.1-9.2s-12.9,3.6-16.2,9.2c-0.7,1.1-0.3,2.6,0.8,3.2c1.1,0.7,2.6,0.3,3.2-0.8c2.5-4.2,7.1-6.9,12.2-6.9
	c5,0,9.6,2.6,12.1,6.9c0.7,1.1,2.1,1.5,3.2,0.8C-1102.7,771.7-1102.4,770.3-1103,769.2z"/>
</svg>
